<svg width="77" height="28" viewBox="0 0 77 28" fill="none" xmlns="http://www.w3.org/2000/svg">
<path d="M15.6705 4.76136L12.9602 5.52841C12.7898 5.0767 12.5384 4.63778 12.206 4.21165C11.8821 3.77699 11.4389 3.41903 10.8764 3.13778C10.3139 2.85653 9.59375 2.71591 8.71591 2.71591C7.5142 2.71591 6.51278 2.9929 5.71165 3.54688C4.91903 4.09233 4.52273 4.78693 4.52273 5.63068C4.52273 6.38068 4.79545 6.97301 5.34091 7.40767C5.88636 7.84233 6.73864 8.20454 7.89773 8.49432L10.8125 9.21023C12.5682 9.63636 13.8764 10.2884 14.7372 11.1662C15.598 12.0355 16.0284 13.1562 16.0284 14.5284C16.0284 15.6534 15.7045 16.6591 15.0568 17.5455C14.4176 18.4318 13.5227 19.1307 12.3722 19.642C11.2216 20.1534 9.88352 20.4091 8.35795 20.4091C6.35511 20.4091 4.69744 19.9744 3.38494 19.1051C2.07244 18.2358 1.24148 16.9659 0.892046 15.2955L3.75568 14.5795C4.02841 15.6364 4.54403 16.429 5.30256 16.9574C6.0696 17.4858 7.07102 17.75 8.30682 17.75C9.71307 17.75 10.8295 17.4517 11.6562 16.8551C12.4915 16.25 12.9091 15.5256 12.9091 14.6818C12.9091 14 12.6705 13.429 12.1932 12.9688C11.7159 12.5 10.983 12.1506 9.99432 11.9205L6.72159 11.1534C4.9233 10.7273 3.60227 10.0668 2.75852 9.17188C1.9233 8.26847 1.50568 7.1392 1.50568 5.78409C1.50568 4.67614 1.81676 3.69602 2.43892 2.84375C3.0696 1.99148 3.92614 1.32244 5.00852 0.836647C6.09943 0.350852 7.33523 0.107955 8.71591 0.107955C10.6591 0.107955 12.1847 0.534091 13.2926 1.38636C14.4091 2.23864 15.2017 3.36364 15.6705 4.76136ZM36.6268 0.363636L29.3654 20H26.2972L19.0359 0.363636H22.3086L27.729 16.0114H27.9336L33.354 0.363636H36.6268ZM47.832 27.7727C46.3746 27.7727 45.1218 27.5852 44.0735 27.2102C43.0252 26.8438 42.1516 26.358 41.4528 25.7528C40.7624 25.1563 40.2127 24.517 39.8036 23.8352L42.207 22.1477C42.4798 22.5057 42.8249 22.9148 43.2425 23.375C43.6602 23.8438 44.2312 24.2486 44.9556 24.5895C45.6886 24.9389 46.6474 25.1136 47.832 25.1136C49.4173 25.1136 50.7255 24.7301 51.7567 23.9631C52.788 23.196 53.3036 21.9943 53.3036 20.358V16.3693H53.0479C52.8264 16.7273 52.511 17.1705 52.1019 17.6989C51.7013 18.2188 51.1218 18.6832 50.3633 19.0923C49.6133 19.4929 48.5991 19.6932 47.3207 19.6932C45.7354 19.6932 44.3121 19.3182 43.0508 18.5682C41.7979 17.8182 40.805 16.7273 40.0721 15.2955C39.3477 13.8636 38.9854 12.125 38.9854 10.0795C38.9854 8.06818 39.3391 6.31676 40.0465 4.82528C40.7539 3.32528 41.7383 2.16619 42.9996 1.34801C44.261 0.521307 45.7184 0.107955 47.3718 0.107955C48.6502 0.107955 49.6644 0.321023 50.4144 0.747159C51.1729 1.16477 51.7525 1.64205 52.1531 2.17898C52.5621 2.70739 52.8775 3.14204 53.0991 3.48295H53.4059V0.363636H56.3207V20.5625C56.3207 22.25 55.9371 23.6222 55.1701 24.679C54.4116 25.7443 53.3888 26.5241 52.1019 27.0185C50.8235 27.5213 49.4002 27.7727 47.832 27.7727ZM47.7298 16.983C48.94 16.983 49.9627 16.706 50.7979 16.152C51.6332 15.598 52.2681 14.8011 52.7028 13.7614C53.1374 12.7216 53.3548 11.4773 53.3548 10.0284C53.3548 8.61364 53.1417 7.36506 52.7156 6.28267C52.2894 5.20028 51.6587 4.35227 50.8235 3.73864C49.9883 3.125 48.957 2.81818 47.7298 2.81818C46.4513 2.81818 45.386 3.14204 44.5337 3.78977C43.69 4.4375 43.055 5.30682 42.6289 6.39773C42.2113 7.48864 42.0025 8.69886 42.0025 10.0284C42.0025 11.392 42.2156 12.598 42.6417 13.6463C43.0763 14.6861 43.7156 15.5043 44.5593 16.1009C45.4116 16.6889 46.4684 16.983 47.7298 16.983ZM75.7525 4.76136L73.0423 5.52841C72.8718 5.0767 72.6204 4.63778 72.288 4.21165C71.9641 3.77699 71.521 3.41903 70.9585 3.13778C70.396 2.85653 69.6758 2.71591 68.7979 2.71591C67.5962 2.71591 66.5948 2.9929 65.7937 3.54688C65.0011 4.09233 64.6048 4.78693 64.6048 5.63068C64.6048 6.38068 64.8775 6.97301 65.4229 7.40767C65.9684 7.84233 66.8207 8.20454 67.9798 8.49432L70.8945 9.21023C72.6502 9.63636 73.9585 10.2884 74.8192 11.1662C75.68 12.0355 76.1104 13.1562 76.1104 14.5284C76.1104 15.6534 75.7866 16.6591 75.1389 17.5455C74.4996 18.4318 73.6048 19.1307 72.4542 19.642C71.3036 20.1534 69.9656 20.4091 68.44 20.4091C66.4371 20.4091 64.7795 19.9744 63.467 19.1051C62.1545 18.2358 61.3235 16.9659 60.9741 15.2955L63.8377 14.5795C64.1104 15.6364 64.6261 16.429 65.3846 16.9574C66.1516 17.4858 67.1531 17.75 68.3889 17.75C69.7951 17.75 70.9116 17.4517 71.7383 16.8551C72.5735 16.25 72.9911 15.5256 72.9911 14.6818C72.9911 14 72.7525 13.429 72.2752 12.9688C71.7979 12.5 71.065 12.1506 70.0764 11.9205L66.8036 11.1534C65.0053 10.7273 63.6843 10.0668 62.8406 9.17188C62.0053 8.26847 61.5877 7.1392 61.5877 5.78409C61.5877 4.67614 61.8988 3.69602 62.521 2.84375C63.1516 1.99148 64.0082 1.32244 65.0906 0.836647C66.1815 0.350852 67.4173 0.107955 68.7979 0.107955C70.7411 0.107955 72.2667 0.534091 73.3746 1.38636C74.4911 2.23864 75.2837 3.36364 75.7525 4.76136Z" fill="white"/>
</svg>
