<svg width="285" height="125" viewBox="0 0 285 125" fill="none" xmlns="http://www.w3.org/2000/svg">
<path d="M109 31H101.818V7.72727H109.318C111.576 7.72727 113.508 8.19318 115.114 9.125C116.72 10.0492 117.951 11.3788 118.807 13.1136C119.663 14.8409 120.091 16.9091 120.091 19.3182C120.091 21.7424 119.659 23.8295 118.795 25.5795C117.932 27.322 116.674 28.6629 115.023 29.6023C113.371 30.5341 111.364 31 109 31ZM104.636 28.5H108.818C110.742 28.5 112.337 28.1288 113.602 27.3864C114.867 26.6439 115.811 25.5871 116.432 24.2159C117.053 22.8447 117.364 21.2121 117.364 19.3182C117.364 17.4394 117.057 15.822 116.443 14.4659C115.83 13.1023 114.913 12.0568 113.693 11.3295C112.473 10.5947 110.955 10.2273 109.136 10.2273H104.636V28.5ZM129.591 31.4091C128.485 31.4091 127.481 31.2008 126.58 30.7841C125.678 30.3598 124.962 29.75 124.432 28.9545C123.902 28.1515 123.636 27.1818 123.636 26.0455C123.636 25.0455 123.833 24.2348 124.227 23.6136C124.621 22.9848 125.148 22.4924 125.807 22.1364C126.466 21.7803 127.193 21.5152 127.989 21.3409C128.792 21.1591 129.598 21.0152 130.409 20.9091C131.47 20.7727 132.33 20.6705 132.989 20.6023C133.655 20.5265 134.14 20.4015 134.443 20.2273C134.754 20.053 134.909 19.75 134.909 19.3182V19.2273C134.909 18.1061 134.602 17.2348 133.989 16.6136C133.383 15.9924 132.462 15.6818 131.227 15.6818C129.947 15.6818 128.943 15.9621 128.216 16.5227C127.489 17.0833 126.977 17.6818 126.682 18.3182L124.136 17.4091C124.591 16.3485 125.197 15.5227 125.955 14.9318C126.72 14.3333 127.553 13.9167 128.455 13.6818C129.364 13.4394 130.258 13.3182 131.136 13.3182C131.697 13.3182 132.341 13.3864 133.068 13.5227C133.803 13.6515 134.511 13.9205 135.193 14.3295C135.883 14.7386 136.455 15.3561 136.909 16.1818C137.364 17.0076 137.591 18.1136 137.591 19.5V31H134.909V28.6364H134.773C134.591 29.0152 134.288 29.4205 133.864 29.8523C133.439 30.2841 132.875 30.6515 132.17 30.9545C131.466 31.2576 130.606 31.4091 129.591 31.4091ZM130 29C131.061 29 131.955 28.7917 132.682 28.375C133.417 27.9583 133.97 27.4205 134.341 26.7614C134.72 26.1023 134.909 25.4091 134.909 24.6818V22.2273C134.795 22.3636 134.545 22.4886 134.159 22.6023C133.78 22.7083 133.341 22.803 132.841 22.8864C132.348 22.9621 131.867 23.0303 131.398 23.0909C130.936 23.1439 130.561 23.1894 130.273 23.2273C129.576 23.3182 128.924 23.4659 128.318 23.6705C127.72 23.8674 127.235 24.1667 126.864 24.5682C126.5 24.9621 126.318 25.5 126.318 26.1818C126.318 27.1136 126.663 27.8182 127.352 28.2955C128.049 28.7652 128.932 29 130 29ZM150.077 13.5455V15.8182H141.031V13.5455H150.077ZM143.668 9.36364H146.349V26C146.349 26.7576 146.459 27.3258 146.679 27.7045C146.906 28.0758 147.194 28.3258 147.543 28.4545C147.899 28.5758 148.274 28.6364 148.668 28.6364C148.963 28.6364 149.205 28.6212 149.395 28.5909C149.584 28.553 149.736 28.5227 149.849 28.5L150.395 30.9091C150.213 30.9773 149.959 31.0455 149.634 31.1136C149.308 31.1894 148.895 31.2273 148.395 31.2273C147.637 31.2273 146.895 31.0644 146.168 30.7386C145.448 30.4129 144.849 29.9167 144.372 29.25C143.902 28.5833 143.668 27.7424 143.668 26.7273V9.36364ZM159.247 31.4091C158.141 31.4091 157.137 31.2008 156.236 30.7841C155.334 30.3598 154.618 29.75 154.088 28.9545C153.558 28.1515 153.293 27.1818 153.293 26.0455C153.293 25.0455 153.49 24.2348 153.884 23.6136C154.277 22.9848 154.804 22.4924 155.463 22.1364C156.122 21.7803 156.849 21.5152 157.645 21.3409C158.448 21.1591 159.255 21.0152 160.065 20.9091C161.126 20.7727 161.986 20.6705 162.645 20.6023C163.312 20.5265 163.796 20.4015 164.099 20.2273C164.41 20.053 164.565 19.75 164.565 19.3182V19.2273C164.565 18.1061 164.259 17.2348 163.645 16.6136C163.039 15.9924 162.118 15.6818 160.884 15.6818C159.603 15.6818 158.599 15.9621 157.872 16.5227C157.145 17.0833 156.634 17.6818 156.338 18.3182L153.793 17.4091C154.247 16.3485 154.853 15.5227 155.611 14.9318C156.376 14.3333 157.209 13.9167 158.111 13.6818C159.02 13.4394 159.914 13.3182 160.793 13.3182C161.353 13.3182 161.997 13.3864 162.724 13.5227C163.459 13.6515 164.168 13.9205 164.849 14.3295C165.539 14.7386 166.111 15.3561 166.565 16.1818C167.02 17.0076 167.247 18.1136 167.247 19.5V31H164.565V28.6364H164.429C164.247 29.0152 163.944 29.4205 163.52 29.8523C163.096 30.2841 162.531 30.6515 161.827 30.9545C161.122 31.2576 160.262 31.4091 159.247 31.4091ZM159.656 29C160.717 29 161.611 28.7917 162.338 28.375C163.073 27.9583 163.626 27.4205 163.997 26.7614C164.376 26.1023 164.565 25.4091 164.565 24.6818V22.2273C164.452 22.3636 164.202 22.4886 163.815 22.6023C163.437 22.7083 162.997 22.803 162.497 22.8864C162.005 22.9621 161.524 23.0303 161.054 23.0909C160.592 23.1439 160.217 23.1894 159.929 23.2273C159.232 23.3182 158.58 23.4659 157.974 23.6705C157.376 23.8674 156.891 24.1667 156.52 24.5682C156.156 24.9621 155.974 25.5 155.974 26.1818C155.974 27.1136 156.319 27.8182 157.009 28.2955C157.705 28.7652 158.588 29 159.656 29Z" fill="white"/>
<path d="M191.529 58.8182V69H190.336L184.788 61.0057H184.689V69H183.456V58.8182H184.649L190.217 66.8324H190.316V58.8182H191.529ZM198.65 65.8778V61.3636H199.823V69H198.65V67.7074H198.57C198.392 68.0952 198.113 68.425 197.735 68.6967C197.357 68.9652 196.88 69.0994 196.303 69.0994C195.826 69.0994 195.402 68.995 195.031 68.7862C194.66 68.5741 194.368 68.2559 194.156 67.8317C193.944 67.4041 193.838 66.8655 193.838 66.2159V61.3636H195.011V66.1364C195.011 66.6932 195.167 67.1373 195.478 67.4688C195.793 67.8002 196.194 67.9659 196.681 67.9659C196.973 67.9659 197.27 67.8913 197.571 67.7422C197.876 67.593 198.131 67.3643 198.337 67.0561C198.546 66.7479 198.65 66.3551 198.65 65.8778ZM201.972 69V61.3636H203.106V62.5568H203.205C203.364 62.1491 203.621 61.8326 203.976 61.6072C204.33 61.3786 204.756 61.2642 205.254 61.2642C205.757 61.2642 206.177 61.3786 206.511 61.6072C206.849 61.8326 207.113 62.1491 207.302 62.5568H207.381C207.577 62.1624 207.87 61.8492 208.261 61.6172C208.652 61.3819 209.121 61.2642 209.668 61.2642C210.351 61.2642 210.91 61.478 211.344 61.9055C211.778 62.3298 211.995 62.991 211.995 63.8892V69H210.822V63.8892C210.822 63.3258 210.668 62.9231 210.359 62.6811C210.051 62.4392 209.688 62.3182 209.271 62.3182C208.734 62.3182 208.318 62.4806 208.023 62.8054C207.728 63.1269 207.58 63.5346 207.58 64.0284V69H206.387V63.7699C206.387 63.3357 206.246 62.986 205.964 62.7209C205.683 62.4524 205.32 62.3182 204.876 62.3182C204.571 62.3182 204.286 62.3994 204.021 62.5618C203.759 62.7242 203.547 62.9496 203.384 63.2379C203.225 63.523 203.146 63.8527 203.146 64.2273V69H201.972ZM217.342 69.1591C216.606 69.1591 215.971 68.9967 215.438 68.6719C214.908 68.3438 214.498 67.8864 214.21 67.2997C213.925 66.7098 213.782 66.0237 213.782 65.2415C213.782 64.4593 213.925 63.7699 214.21 63.1733C214.498 62.5734 214.899 62.1061 215.413 61.7713C215.93 61.4332 216.533 61.2642 217.223 61.2642C217.62 61.2642 218.013 61.3305 218.401 61.4631C218.789 61.5956 219.142 61.8111 219.46 62.1094C219.778 62.4044 220.032 62.7955 220.221 63.2827C220.409 63.7699 220.504 64.3698 220.504 65.0824V65.5795H214.618V64.5653H219.311C219.311 64.1345 219.225 63.75 219.052 63.4119C218.883 63.0739 218.641 62.8071 218.326 62.6115C218.015 62.416 217.647 62.3182 217.223 62.3182C216.755 62.3182 216.351 62.4342 216.01 62.6662C215.672 62.8949 215.411 63.1932 215.229 63.5611C215.047 63.929 214.956 64.3234 214.956 64.7443V65.4205C214.956 65.9972 215.055 66.486 215.254 66.8871C215.456 67.2848 215.736 67.5881 216.094 67.7969C216.452 68.0024 216.868 68.1051 217.342 68.1051C217.65 68.1051 217.929 68.062 218.177 67.9759C218.429 67.8864 218.646 67.7538 218.828 67.5781C219.011 67.3991 219.152 67.1771 219.251 66.9119L220.385 67.2301C220.265 67.6146 220.065 67.9527 219.783 68.2443C219.501 68.5327 219.153 68.758 218.739 68.9205C218.325 69.0795 217.859 69.1591 217.342 69.1591ZM222.289 69V61.3636H223.422V62.517H223.502C223.641 62.1392 223.893 61.8326 224.257 61.5973C224.622 61.362 225.033 61.2443 225.49 61.2443C225.577 61.2443 225.684 61.246 225.814 61.2493C225.943 61.2526 226.041 61.2576 226.107 61.2642V62.4574C226.067 62.4474 225.976 62.4325 225.833 62.4126C225.694 62.3894 225.547 62.3778 225.391 62.3778C225.02 62.3778 224.688 62.4557 224.397 62.6115C224.108 62.764 223.88 62.9761 223.711 63.2479C223.545 63.5163 223.462 63.8229 223.462 64.1676V69H222.289ZM227.498 69V61.3636H228.671V69H227.498ZM228.094 60.0909C227.866 60.0909 227.668 60.013 227.503 59.8572C227.34 59.7015 227.259 59.5142 227.259 59.2955C227.259 59.0767 227.34 58.8894 227.503 58.7337C227.668 58.5779 227.866 58.5 228.094 58.5C228.323 58.5 228.519 58.5779 228.681 58.7337C228.847 58.8894 228.93 59.0767 228.93 59.2955C228.93 59.5142 228.847 59.7015 228.681 59.8572C228.519 60.013 228.323 60.0909 228.094 60.0909ZM233.922 69.1591C233.206 69.1591 232.59 68.9901 232.073 68.652C231.556 68.3139 231.158 67.8482 230.88 67.255C230.601 66.6617 230.462 65.9839 230.462 65.2216C230.462 64.446 230.605 63.7616 230.89 63.1683C231.178 62.5717 231.579 62.1061 232.093 61.7713C232.61 61.4332 233.213 61.2642 233.902 61.2642C234.439 61.2642 234.923 61.3636 235.354 61.5625C235.785 61.7614 236.138 62.0398 236.413 62.3977C236.688 62.7557 236.859 63.1733 236.925 63.6506H235.752C235.662 63.3026 235.463 62.9943 235.155 62.7259C234.85 62.4541 234.439 62.3182 233.922 62.3182C233.465 62.3182 233.064 62.4375 232.719 62.6761C232.378 62.9115 232.111 63.2446 231.919 63.6754C231.73 64.103 231.635 64.6051 231.635 65.1818C231.635 65.7718 231.728 66.2855 231.914 66.723C232.103 67.1605 232.368 67.5002 232.709 67.7422C233.054 67.9841 233.458 68.1051 233.922 68.1051C234.227 68.1051 234.504 68.0521 234.752 67.946C235.001 67.84 235.212 67.6875 235.384 67.4886C235.556 67.2898 235.679 67.0511 235.752 66.7727H236.925C236.859 67.2235 236.695 67.6295 236.433 67.9908C236.174 68.3487 235.831 68.6338 235.404 68.8459C234.98 69.0547 234.486 69.1591 233.922 69.1591ZM240.887 69.179C240.404 69.179 239.964 69.0878 239.57 68.9055C239.176 68.7199 238.862 68.4531 238.63 68.1051C238.398 67.7538 238.282 67.3295 238.282 66.8324C238.282 66.3949 238.368 66.0402 238.541 65.7685C238.713 65.4934 238.944 65.2779 239.232 65.1222C239.52 64.9664 239.838 64.8504 240.186 64.7741C240.538 64.6946 240.891 64.6316 241.245 64.5852C241.709 64.5256 242.086 64.4808 242.374 64.451C242.666 64.4179 242.878 64.3632 243.01 64.2869C243.146 64.2107 243.214 64.0781 243.214 63.8892V63.8494C243.214 63.3589 243.08 62.9777 242.811 62.706C242.546 62.4342 242.144 62.2983 241.603 62.2983C241.043 62.2983 240.604 62.4209 240.286 62.6662C239.968 62.9115 239.744 63.1733 239.615 63.4517L238.501 63.054C238.7 62.59 238.965 62.2287 239.297 61.9702C239.631 61.7083 239.996 61.526 240.39 61.4233C240.788 61.3172 241.179 61.2642 241.564 61.2642C241.809 61.2642 242.091 61.294 242.409 61.3537C242.73 61.41 243.04 61.5277 243.338 61.7067C243.64 61.8857 243.89 62.1558 244.089 62.517C244.288 62.8783 244.387 63.3622 244.387 63.9688V69H243.214V67.9659H243.154C243.075 68.1316 242.942 68.3089 242.757 68.4979C242.571 68.6868 242.324 68.8475 242.016 68.9801C241.708 69.1127 241.332 69.179 240.887 69.179ZM241.066 68.125C241.53 68.125 241.922 68.0339 242.24 67.8516C242.561 67.6693 242.803 67.4339 242.966 67.1456C243.131 66.8572 243.214 66.554 243.214 66.2358V65.1619C243.164 65.2216 243.055 65.2763 242.886 65.326C242.72 65.3724 242.528 65.4138 242.309 65.4503C242.094 65.4834 241.883 65.5133 241.678 65.5398C241.476 65.563 241.312 65.5829 241.186 65.5994C240.881 65.6392 240.596 65.7038 240.331 65.7933C240.069 65.8795 239.857 66.0104 239.694 66.1861C239.535 66.3584 239.456 66.5937 239.456 66.892C239.456 67.2997 239.606 67.608 239.908 67.8168C240.213 68.0223 240.599 68.125 241.066 68.125ZM247.702 58.8182V69H246.529V58.8182H247.702ZM171.751 80.9091C171.751 79.6562 171.914 78.5045 172.238 77.4538C172.567 76.3999 173.034 75.4304 173.64 74.5455H174.675C174.436 74.8736 174.212 75.2779 174.003 75.7585C173.798 76.2358 173.617 76.7611 173.461 77.3345C173.306 77.9046 173.183 78.4946 173.094 79.1044C173.007 79.7143 172.964 80.3158 172.964 80.9091C172.964 81.6979 173.041 82.4983 173.193 83.3104C173.345 84.1224 173.551 84.8764 173.809 85.5724C174.068 86.2685 174.356 86.8352 174.675 87.2727H173.64C173.034 86.3878 172.567 85.42 172.238 84.3693C171.914 83.3153 171.751 82.1619 171.751 80.9091ZM180.264 82.8182H181.616L182.75 84.3097L183.048 84.7074L184.738 86.9545H183.386L182.272 85.4631L181.994 85.0852L180.264 82.8182ZM185.156 80.9091C185.156 81.983 184.962 82.911 184.574 83.6932C184.186 84.4754 183.654 85.0786 182.978 85.5028C182.302 85.9271 181.53 86.1392 180.662 86.1392C179.793 86.1392 179.021 85.9271 178.345 85.5028C177.669 85.0786 177.137 84.4754 176.749 83.6932C176.361 82.911 176.167 81.983 176.167 80.9091C176.167 79.8352 176.361 78.9072 176.749 78.125C177.137 77.3428 177.669 76.7396 178.345 76.3153C179.021 75.8911 179.793 75.679 180.662 75.679C181.53 75.679 182.302 75.8911 182.978 76.3153C183.654 76.7396 184.186 77.3428 184.574 78.125C184.962 78.9072 185.156 79.8352 185.156 80.9091ZM183.963 80.9091C183.963 80.0275 183.815 79.2834 183.52 78.6768C183.229 78.0703 182.833 77.6113 182.332 77.2997C181.835 76.9882 181.278 76.8324 180.662 76.8324C180.045 76.8324 179.487 76.9882 178.986 77.2997C178.489 77.6113 178.093 78.0703 177.798 78.6768C177.506 79.2834 177.36 80.0275 177.36 80.9091C177.36 81.7907 177.506 82.5348 177.798 83.1413C178.093 83.7479 178.489 84.2069 178.986 84.5185C179.487 84.83 180.045 84.9858 180.662 84.9858C181.278 84.9858 181.835 84.83 182.332 84.5185C182.833 84.2069 183.229 83.7479 183.52 83.1413C183.815 82.5348 183.963 81.7907 183.963 80.9091ZM191.882 82.8778V78.3636H193.056V86H191.882V84.7074H191.803C191.624 85.0952 191.346 85.425 190.968 85.6967C190.59 85.9652 190.113 86.0994 189.536 86.0994C189.059 86.0994 188.634 85.995 188.263 85.7862C187.892 85.5741 187.6 85.2559 187.388 84.8317C187.176 84.4041 187.07 83.8655 187.07 83.2159V78.3636H188.243V83.1364C188.243 83.6932 188.399 84.1373 188.711 84.4688C189.025 84.8002 189.426 84.9659 189.914 84.9659C190.205 84.9659 190.502 84.8913 190.804 84.7422C191.109 84.593 191.364 84.3643 191.569 84.0561C191.778 83.7479 191.882 83.3551 191.882 82.8778ZM197.452 86.179C196.968 86.179 196.529 86.0878 196.134 85.9055C195.74 85.7199 195.427 85.4531 195.195 85.1051C194.963 84.7538 194.847 84.3295 194.847 83.8324C194.847 83.3949 194.933 83.0402 195.105 82.7685C195.278 82.4934 195.508 82.2779 195.796 82.1222C196.085 81.9664 196.403 81.8504 196.751 81.7741C197.102 81.6946 197.455 81.6316 197.81 81.5852C198.274 81.5256 198.65 81.4808 198.938 81.451C199.23 81.4179 199.442 81.3632 199.575 81.2869C199.711 81.2107 199.779 81.0781 199.779 80.8892V80.8494C199.779 80.3589 199.644 79.9777 199.376 79.706C199.111 79.4342 198.708 79.2983 198.168 79.2983C197.608 79.2983 197.169 79.4209 196.85 79.6662C196.532 79.9115 196.308 80.1733 196.179 80.4517L195.066 80.054C195.264 79.59 195.53 79.2287 195.861 78.9702C196.196 78.7083 196.56 78.526 196.955 78.4233C197.352 78.3172 197.744 78.2642 198.128 78.2642C198.373 78.2642 198.655 78.294 198.973 78.3537C199.295 78.41 199.605 78.5277 199.903 78.7067C200.204 78.8857 200.455 79.1558 200.654 79.517C200.852 79.8783 200.952 80.3622 200.952 80.9688V86H199.779V84.9659H199.719C199.639 85.1316 199.507 85.3089 199.321 85.4979C199.136 85.6868 198.889 85.8475 198.58 85.9801C198.272 86.1127 197.896 86.179 197.452 86.179ZM197.631 85.125C198.095 85.125 198.486 85.0339 198.804 84.8516C199.126 84.6693 199.368 84.4339 199.53 84.1456C199.696 83.8572 199.779 83.554 199.779 83.2358V82.1619C199.729 82.2216 199.619 82.2763 199.45 82.326C199.285 82.3724 199.093 82.4138 198.874 82.4503C198.658 82.4834 198.448 82.5133 198.242 82.5398C198.04 82.563 197.876 82.5829 197.75 82.5994C197.445 82.6392 197.16 82.7038 196.895 82.7933C196.633 82.8795 196.421 83.0104 196.259 83.1861C196.1 83.3584 196.02 83.5937 196.02 83.892C196.02 84.2997 196.171 84.608 196.472 84.8168C196.777 85.0223 197.164 85.125 197.631 85.125ZM204.267 81.4062V86H203.093V78.3636H204.227V79.5568H204.326C204.505 79.169 204.777 78.8575 205.142 78.6222C205.506 78.3835 205.977 78.2642 206.554 78.2642C207.071 78.2642 207.523 78.3703 207.911 78.5824C208.299 78.7912 208.6 79.1094 208.816 79.5369C209.031 79.9612 209.139 80.4981 209.139 81.1477V86H207.966V81.2273C207.966 80.6274 207.81 80.16 207.498 79.8253C207.187 79.4872 206.759 79.3182 206.216 79.3182C205.841 79.3182 205.506 79.3994 205.211 79.5618C204.92 79.7242 204.689 79.9612 204.52 80.2727C204.351 80.5843 204.267 80.9621 204.267 81.4062ZM214.604 78.3636V79.358H210.646V78.3636H214.604ZM211.8 76.5341H212.973V83.8125C212.973 84.1439 213.021 84.3925 213.117 84.5582C213.217 84.7206 213.343 84.83 213.495 84.8864C213.651 84.9394 213.815 84.9659 213.987 84.9659C214.117 84.9659 214.223 84.9593 214.306 84.946C214.388 84.9295 214.455 84.9162 214.504 84.9062L214.743 85.9602C214.664 85.9901 214.552 86.0199 214.41 86.0497C214.267 86.0829 214.087 86.0994 213.868 86.0994C213.537 86.0994 213.212 86.0282 212.894 85.8857C212.579 85.7431 212.317 85.526 212.108 85.2344C211.903 84.9427 211.8 84.5748 211.8 84.1307V76.5341ZM216.369 86V78.3636H217.542V86H216.369ZM216.965 77.0909C216.737 77.0909 216.539 77.013 216.374 76.8572C216.211 76.7015 216.13 76.5142 216.13 76.2955C216.13 76.0767 216.211 75.8894 216.374 75.7337C216.539 75.5779 216.737 75.5 216.965 75.5C217.194 75.5 217.39 75.5779 217.552 75.7337C217.718 75.8894 217.801 76.0767 217.801 76.2955C217.801 76.5142 217.718 76.7015 217.552 76.8572C217.39 77.013 217.194 77.0909 216.965 77.0909ZM223.012 78.3636V79.358H219.055V78.3636H223.012ZM220.208 76.5341H221.381V83.8125C221.381 84.1439 221.429 84.3925 221.526 84.5582C221.625 84.7206 221.751 84.83 221.903 84.8864C222.059 84.9394 222.223 84.9659 222.396 84.9659C222.525 84.9659 222.631 84.9593 222.714 84.946C222.797 84.9295 222.863 84.9162 222.913 84.9062L223.151 85.9602C223.072 85.9901 222.961 86.0199 222.818 86.0497C222.676 86.0829 222.495 86.0994 222.276 86.0994C221.945 86.0994 221.62 86.0282 221.302 85.8857C220.987 85.7431 220.725 85.526 220.516 85.2344C220.311 84.9427 220.208 84.5748 220.208 84.1307V76.5341ZM227.024 86.179C226.54 86.179 226.101 86.0878 225.707 85.9055C225.312 85.7199 224.999 85.4531 224.767 85.1051C224.535 84.7538 224.419 84.3295 224.419 83.8324C224.419 83.3949 224.505 83.0402 224.678 82.7685C224.85 82.4934 225.08 82.2779 225.369 82.1222C225.657 81.9664 225.975 81.8504 226.323 81.7741C226.674 81.6946 227.027 81.6316 227.382 81.5852C227.846 81.5256 228.222 81.4808 228.511 81.451C228.802 81.4179 229.014 81.3632 229.147 81.2869C229.283 81.2107 229.351 81.0781 229.351 80.8892V80.8494C229.351 80.3589 229.217 79.9777 228.948 79.706C228.683 79.4342 228.28 79.2983 227.74 79.2983C227.18 79.2983 226.741 79.4209 226.423 79.6662C226.104 79.9115 225.881 80.1733 225.751 80.4517L224.638 80.054C224.837 79.59 225.102 79.2287 225.433 78.9702C225.768 78.7083 226.133 78.526 226.527 78.4233C226.925 78.3172 227.316 78.2642 227.7 78.2642C227.946 78.2642 228.227 78.294 228.545 78.3537C228.867 78.41 229.177 78.5277 229.475 78.7067C229.777 78.8857 230.027 79.1558 230.226 79.517C230.425 79.8783 230.524 80.3622 230.524 80.9688V86H229.351V84.9659H229.291C229.212 85.1316 229.079 85.3089 228.893 85.4979C228.708 85.6868 228.461 85.8475 228.153 85.9801C227.844 86.1127 227.468 86.179 227.024 86.179ZM227.203 85.125C227.667 85.125 228.058 85.0339 228.376 84.8516C228.698 84.6693 228.94 84.4339 229.102 84.1456C229.268 83.8572 229.351 83.554 229.351 83.2358V82.1619C229.301 82.2216 229.192 82.2763 229.023 82.326C228.857 82.3724 228.665 82.4138 228.446 82.4503C228.231 82.4834 228.02 82.5133 227.815 82.5398C227.612 82.563 227.448 82.5829 227.322 82.5994C227.018 82.6392 226.732 82.7038 226.467 82.7933C226.205 82.8795 225.993 83.0104 225.831 83.1861C225.672 83.3584 225.592 83.5937 225.592 83.892C225.592 84.2997 225.743 84.608 226.045 84.8168C226.35 85.0223 226.736 85.125 227.203 85.125ZM235.987 78.3636V79.358H232.029V78.3636H235.987ZM233.183 76.5341H234.356V83.8125C234.356 84.1439 234.404 84.3925 234.5 84.5582C234.6 84.7206 234.726 84.83 234.878 84.8864C235.034 84.9394 235.198 84.9659 235.37 84.9659C235.499 84.9659 235.606 84.9593 235.688 84.946C235.771 84.9295 235.838 84.9162 235.887 84.9062L236.126 85.9602C236.046 85.9901 235.935 86.0199 235.793 86.0497C235.65 86.0829 235.47 86.0994 235.251 86.0994C234.919 86.0994 234.595 86.0282 234.276 85.8857C233.962 85.7431 233.7 85.526 233.491 85.2344C233.285 84.9427 233.183 84.5748 233.183 84.1307V76.5341ZM237.752 86V78.3636H238.925V86H237.752ZM238.348 77.0909C238.119 77.0909 237.922 77.013 237.757 76.8572C237.594 76.7015 237.513 76.5142 237.513 76.2955C237.513 76.0767 237.594 75.8894 237.757 75.7337C237.922 75.5779 238.119 75.5 238.348 75.5C238.577 75.5 238.772 75.5779 238.935 75.7337C239.101 75.8894 239.183 76.0767 239.183 76.2955C239.183 76.5142 239.101 76.7015 238.935 76.8572C238.772 77.013 238.577 77.0909 238.348 77.0909ZM247.318 78.3636L244.494 86H243.301L240.477 78.3636H241.75L243.858 84.4489H243.938L246.045 78.3636H247.318ZM251.795 86.1591C251.059 86.1591 250.425 85.9967 249.891 85.6719C249.361 85.3438 248.951 84.8864 248.663 84.2997C248.378 83.7098 248.235 83.0237 248.235 82.2415C248.235 81.4593 248.378 80.7699 248.663 80.1733C248.951 79.5734 249.352 79.1061 249.866 78.7713C250.383 78.4332 250.986 78.2642 251.676 78.2642C252.074 78.2642 252.466 78.3305 252.854 78.4631C253.242 78.5956 253.595 78.8111 253.913 79.1094C254.231 79.4044 254.485 79.7955 254.674 80.2827C254.863 80.7699 254.957 81.3698 254.957 82.0824V82.5795H249.071V81.5653H253.764C253.764 81.1345 253.678 80.75 253.505 80.4119C253.336 80.0739 253.094 79.8071 252.779 79.6115C252.468 79.416 252.1 79.3182 251.676 79.3182C251.208 79.3182 250.804 79.4342 250.463 79.6662C250.125 79.8949 249.864 80.1932 249.682 80.5611C249.5 80.929 249.409 81.3234 249.409 81.7443V82.4205C249.409 82.9972 249.508 83.486 249.707 83.8871C249.909 84.2848 250.189 84.5881 250.547 84.7969C250.905 85.0024 251.321 85.1051 251.795 85.1051C252.103 85.1051 252.382 85.062 252.63 84.9759C252.882 84.8864 253.099 84.7538 253.282 84.5781C253.464 84.3991 253.605 84.1771 253.704 83.9119L254.838 84.2301C254.718 84.6146 254.518 84.9527 254.236 85.2443C253.954 85.5327 253.606 85.758 253.192 85.9205C252.778 86.0795 252.312 86.1591 251.795 86.1591ZM259.248 81.7045C259.248 82.9574 259.083 84.1108 258.755 85.1648C258.431 86.2154 257.965 87.1832 257.358 88.0682H256.324C256.563 87.7401 256.785 87.3357 256.99 86.8551C257.199 86.3778 257.382 85.8542 257.537 85.2841C257.693 84.7107 257.814 84.1191 257.9 83.5092C257.99 82.8961 258.034 82.2945 258.034 81.7045C258.034 80.9157 257.958 80.1153 257.806 79.3033C257.653 78.4912 257.448 77.7372 257.189 77.0412C256.931 76.3452 256.642 75.7784 256.324 75.3409H257.358C257.965 76.2259 258.431 77.1953 258.755 78.2493C259.083 79.3 259.248 80.4517 259.248 81.7045Z" fill="white"/>
<path d="M29.0892 62H27.8563C27.7834 61.6454 27.6557 61.3338 27.4735 61.0653C27.2945 60.7969 27.0757 60.5715 26.8172 60.3892C26.562 60.2036 26.2786 60.0644 25.9671 59.9716C25.6555 59.8788 25.3307 59.8324 24.9926 59.8324C24.3762 59.8324 23.8177 59.9882 23.3172 60.2997C22.82 60.6113 22.424 61.0703 22.129 61.6768C21.8373 62.2834 21.6915 63.0275 21.6915 63.9091C21.6915 64.7907 21.8373 65.5348 22.129 66.1413C22.424 66.7479 22.82 67.2069 23.3172 67.5185C23.8177 67.83 24.3762 67.9858 24.9926 67.9858C25.3307 67.9858 25.6555 67.9394 25.9671 67.8466C26.2786 67.7538 26.562 67.6162 26.8172 67.4339C27.0757 67.2483 27.2945 67.0213 27.4735 66.7528C27.6557 66.4811 27.7834 66.1695 27.8563 65.8182H29.0892C28.9964 66.3385 28.8274 66.8042 28.5821 67.2152C28.3369 67.6262 28.0319 67.9759 27.6673 68.2642C27.3028 68.5492 26.8934 68.7663 26.4394 68.9155C25.9886 69.0646 25.5064 69.1392 24.9926 69.1392C24.1243 69.1392 23.352 68.9271 22.6759 68.5028C21.9997 68.0786 21.4678 67.4754 21.08 66.6932C20.6922 65.911 20.4983 64.983 20.4983 63.9091C20.4983 62.8352 20.6922 61.9072 21.08 61.125C21.4678 60.3428 21.9997 59.7396 22.6759 59.3153C23.352 58.8911 24.1243 58.679 24.9926 58.679C25.5064 58.679 25.9886 58.7536 26.4394 58.9027C26.8934 59.0518 27.3028 59.2706 27.6673 59.5589C28.0319 59.844 28.3369 60.192 28.5821 60.603C28.8274 61.0107 28.9964 61.4763 29.0892 62ZM33.1697 69.179C32.6858 69.179 32.2466 69.0878 31.8522 68.9055C31.4578 68.7199 31.1446 68.4531 30.9126 68.1051C30.6805 67.7538 30.5645 67.3295 30.5645 66.8324C30.5645 66.3949 30.6507 66.0402 30.8231 65.7685C30.9954 65.4934 31.2258 65.2779 31.5141 65.1222C31.8025 64.9664 32.1206 64.8504 32.4687 64.7741C32.82 64.6946 33.173 64.6316 33.5276 64.5852C33.9916 64.5256 34.3678 64.4808 34.6562 64.451C34.9478 64.4179 35.1599 64.3632 35.2925 64.2869C35.4284 64.2107 35.4964 64.0781 35.4964 63.8892V63.8494C35.4964 63.3589 35.3621 62.9777 35.0937 62.706C34.8285 62.4342 34.4258 62.2983 33.8856 62.2983C33.3254 62.2983 32.8863 62.4209 32.5681 62.6662C32.2499 62.9115 32.0262 63.1733 31.8969 63.4517L30.7833 63.054C30.9822 62.59 31.2473 62.2287 31.5787 61.9702C31.9135 61.7083 32.2781 61.526 32.6725 61.4233C33.0702 61.3172 33.4613 61.2642 33.8458 61.2642C34.0911 61.2642 34.3728 61.294 34.691 61.3537C35.0125 61.41 35.3224 61.5277 35.6206 61.7067C35.9223 61.8857 36.1725 62.1558 36.3714 62.517C36.5702 62.8783 36.6697 63.3622 36.6697 63.9688V69H35.4964V67.9659H35.4367C35.3572 68.1316 35.2246 68.3089 35.039 68.4979C34.8534 68.6868 34.6064 68.8475 34.2982 68.9801C33.99 69.1127 33.6138 69.179 33.1697 69.179ZM33.3486 68.125C33.8126 68.125 34.2037 68.0339 34.5219 67.8516C34.8434 67.6693 35.0854 67.4339 35.2478 67.1456C35.4135 66.8572 35.4964 66.554 35.4964 66.2358V65.1619C35.4466 65.2216 35.3373 65.2763 35.1682 65.326C35.0025 65.3724 34.8103 65.4138 34.5915 65.4503C34.3761 65.4834 34.1656 65.5133 33.9601 65.5398C33.758 65.563 33.5939 65.5829 33.468 65.5994C33.163 65.6392 32.878 65.7038 32.6128 65.7933C32.351 65.8795 32.1389 66.0104 31.9765 66.1861C31.8174 66.3584 31.7378 66.5937 31.7378 66.892C31.7378 67.2997 31.8886 67.608 32.1903 67.8168C32.4952 68.0223 32.8813 68.125 33.3486 68.125ZM42.1322 61.3636V62.358H38.1748V61.3636H42.1322ZM39.3282 59.5341H40.5015V66.8125C40.5015 67.1439 40.5496 67.3925 40.6457 67.5582C40.7451 67.7206 40.8711 67.83 41.0235 67.8864C41.1793 67.9394 41.3434 67.9659 41.5157 67.9659C41.645 67.9659 41.751 67.9593 41.8339 67.946C41.9168 67.9295 41.983 67.9162 42.0328 67.9062L42.2714 68.9602C42.1919 68.9901 42.0808 69.0199 41.9383 69.0497C41.7958 69.0829 41.6151 69.0994 41.3964 69.0994C41.065 69.0994 40.7401 69.0282 40.422 68.8857C40.1071 68.7431 39.8453 68.526 39.6365 68.2344C39.431 67.9427 39.3282 67.5748 39.3282 67.1307V59.5341ZM47.0168 69.1591C46.281 69.1591 45.6463 68.9967 45.1127 68.6719C44.5824 68.3438 44.173 67.8864 43.8847 67.2997C43.5996 66.7098 43.4571 66.0237 43.4571 65.2415C43.4571 64.4593 43.5996 63.7699 43.8847 63.1733C44.173 62.5734 44.5741 62.1061 45.0878 61.7713C45.6048 61.4332 46.2081 61.2642 46.8975 61.2642C47.2952 61.2642 47.6879 61.3305 48.0757 61.4631C48.4635 61.5956 48.8165 61.8111 49.1347 62.1094C49.4529 62.4044 49.7064 62.7955 49.8953 63.2827C50.0843 63.7699 50.1787 64.3698 50.1787 65.0824V65.5795H44.2923V64.5653H48.9855C48.9855 64.1345 48.8994 63.75 48.727 63.4119C48.558 63.0739 48.316 62.8071 48.0012 62.6115C47.6896 62.416 47.3217 62.3182 46.8975 62.3182C46.4301 62.3182 46.0258 62.4342 45.6844 62.6662C45.3463 62.8949 45.0861 63.1932 44.9039 63.5611C44.7216 63.929 44.6304 64.3234 44.6304 64.7443V65.4205C44.6304 65.9972 44.7298 66.486 44.9287 66.8871C45.1309 67.2848 45.411 67.5881 45.7689 67.7969C46.1269 68.0024 46.5428 68.1051 47.0168 68.1051C47.325 68.1051 47.6034 68.062 47.852 67.9759C48.1039 67.8864 48.321 67.7538 48.5033 67.5781C48.6856 67.3991 48.8264 67.1771 48.9259 66.9119L50.0594 67.2301C49.9401 67.6146 49.7396 67.9527 49.4578 68.2443C49.1761 68.5327 48.8281 68.758 48.4138 68.9205C47.9995 69.0795 47.5338 69.1591 47.0168 69.1591ZM55.0459 72.0227C54.4791 72.0227 53.9919 71.9498 53.5843 71.804C53.1766 71.6615 52.8369 71.4725 52.5651 71.2372C52.2966 71.0052 52.0828 70.7566 51.9237 70.4915L52.8584 69.8352C52.9645 69.9744 53.0987 70.1335 53.2611 70.3125C53.4235 70.4948 53.6456 70.6522 53.9273 70.7848C54.2123 70.9207 54.5852 70.9886 55.0459 70.9886C55.6624 70.9886 56.1711 70.8395 56.5722 70.5412C56.9732 70.2429 57.1737 69.7756 57.1737 69.1392V67.5881H57.0743C56.9881 67.7273 56.8655 67.8996 56.7064 68.1051C56.5506 68.3073 56.3253 68.4879 56.0303 68.647C55.7386 68.8028 55.3442 68.8807 54.847 68.8807C54.2306 68.8807 53.6771 68.7348 53.1865 68.4432C52.6993 68.1515 52.3132 67.7273 52.0281 67.1705C51.7464 66.6136 51.6056 65.9375 51.6056 65.142C51.6056 64.3598 51.7431 63.6787 52.0182 63.0987C52.2933 62.5154 52.6761 62.0646 53.1666 61.7464C53.6572 61.425 54.2239 61.2642 54.8669 61.2642C55.3641 61.2642 55.7585 61.3471 56.0502 61.5128C56.3451 61.6752 56.5705 61.8608 56.7263 62.0696C56.8854 62.2751 57.008 62.4441 57.0942 62.5767H57.2135V61.3636H58.347V69.2188C58.347 69.875 58.1979 70.4086 57.8996 70.8196C57.6046 71.2339 57.2069 71.5372 56.7064 71.7294C56.2093 71.925 55.6557 72.0227 55.0459 72.0227ZM55.0061 67.8267C55.4768 67.8267 55.8745 67.719 56.1993 67.5036C56.5241 67.2881 56.771 66.9782 56.9401 66.5739C57.1091 66.1695 57.1936 65.6856 57.1936 65.1222C57.1936 64.572 57.1108 64.0864 56.945 63.6655C56.7793 63.2446 56.5341 62.9148 56.2093 62.6761C55.8844 62.4375 55.4834 62.3182 55.0061 62.3182C54.509 62.3182 54.0947 62.4441 53.7632 62.696C53.4351 62.9479 53.1882 63.286 53.0225 63.7102C52.8601 64.1345 52.7789 64.6051 52.7789 65.1222C52.7789 65.6525 52.8617 66.1214 53.0274 66.5291C53.1965 66.9335 53.445 67.2517 53.7732 67.4837C54.1046 67.7124 54.5156 67.8267 55.0061 67.8267ZM63.597 69.1591C62.9076 69.1591 62.3028 68.995 61.7824 68.6669C61.2654 68.3388 60.861 67.8797 60.5693 67.2898C60.281 66.6998 60.1368 66.0104 60.1368 65.2216C60.1368 64.4261 60.281 63.7318 60.5693 63.1385C60.861 62.5452 61.2654 62.0845 61.7824 61.7564C62.3028 61.4283 62.9076 61.2642 63.597 61.2642C64.2864 61.2642 64.8896 61.4283 65.4067 61.7564C65.9271 62.0845 66.3314 62.5452 66.6198 63.1385C66.9114 63.7318 67.0573 64.4261 67.0573 65.2216C67.0573 66.0104 66.9114 66.6998 66.6198 67.2898C66.3314 67.8797 65.9271 68.3388 65.4067 68.6669C64.8896 68.995 64.2864 69.1591 63.597 69.1591ZM63.597 68.1051C64.1207 68.1051 64.5516 67.9709 64.8896 67.7024C65.2277 67.4339 65.478 67.081 65.6404 66.6435C65.8028 66.206 65.884 65.732 65.884 65.2216C65.884 64.7112 65.8028 64.2356 65.6404 63.7947C65.478 63.3539 65.2277 62.9976 64.8896 62.7259C64.5516 62.4541 64.1207 62.3182 63.597 62.3182C63.0734 62.3182 62.6425 62.4541 62.3044 62.7259C61.9664 62.9976 61.7161 63.3539 61.5537 63.7947C61.3913 64.2356 61.3101 64.7112 61.3101 65.2216C61.3101 65.732 61.3913 66.206 61.5537 66.6435C61.7161 67.081 61.9664 67.4339 62.3044 67.7024C62.6425 67.9709 63.0734 68.1051 63.597 68.1051ZM68.8483 69V61.3636H69.9818V62.517H70.0613C70.2006 62.1392 70.4524 61.8326 70.817 61.5973C71.1816 61.362 71.5926 61.2443 72.05 61.2443C72.1362 61.2443 72.2439 61.246 72.3731 61.2493C72.5024 61.2526 72.6002 61.2576 72.6665 61.2642V62.4574C72.6267 62.4474 72.5355 62.4325 72.393 62.4126C72.2538 62.3894 72.1063 62.3778 71.9506 62.3778C71.5793 62.3778 71.2479 62.4557 70.9562 62.6115C70.6679 62.764 70.4392 62.9761 70.2702 63.2479C70.1044 63.5163 70.0216 63.8229 70.0216 64.1676V69H68.8483ZM74.0573 69V61.3636H75.2306V69H74.0573ZM74.6539 60.0909C74.4252 60.0909 74.228 60.013 74.0622 59.8572C73.8998 59.7015 73.8186 59.5142 73.8186 59.2955C73.8186 59.0767 73.8998 58.8894 74.0622 58.7337C74.228 58.5779 74.4252 58.5 74.6539 58.5C74.8825 58.5 75.0781 58.5779 75.2405 58.7337C75.4062 58.8894 75.4891 59.0767 75.4891 59.2955C75.4891 59.5142 75.4062 59.7015 75.2405 59.8572C75.0781 60.013 74.8825 60.0909 74.6539 60.0909ZM80.4818 69.1591C79.7659 69.1591 79.1494 68.9901 78.6324 68.652C78.1153 68.3139 77.7176 67.8482 77.4392 67.255C77.1608 66.6617 77.0216 65.9839 77.0216 65.2216C77.0216 64.446 77.1641 63.7616 77.4491 63.1683C77.7375 62.5717 78.1385 62.1061 78.6523 61.7713C79.1693 61.4332 79.7725 61.2642 80.4619 61.2642C80.9988 61.2642 81.4827 61.3636 81.9136 61.5625C82.3445 61.7614 82.6975 62.0398 82.9726 62.3977C83.2477 62.7557 83.4184 63.1733 83.4846 63.6506H82.3113C82.2219 63.3026 82.023 62.9943 81.7148 62.7259C81.4098 62.4541 80.9988 62.3182 80.4818 62.3182C80.0244 62.3182 79.6234 62.4375 79.2787 62.6761C78.9373 62.9115 78.6705 63.2446 78.4782 63.6754C78.2893 64.103 78.1949 64.6051 78.1949 65.1818C78.1949 65.7718 78.2877 66.2855 78.4733 66.723C78.6622 67.1605 78.9273 67.5002 79.2687 67.7422C79.6134 67.9841 80.0178 68.1051 80.4818 68.1051C80.7867 68.1051 81.0635 68.0521 81.3121 67.946C81.5606 67.84 81.7711 67.6875 81.9434 67.4886C82.1158 67.2898 82.2384 67.0511 82.3113 66.7727H83.4846C83.4184 67.2235 83.2543 67.6295 82.9925 67.9908C82.7339 68.3487 82.3909 68.6338 81.9633 68.8459C81.5391 69.0547 81.0452 69.1591 80.4818 69.1591ZM87.447 69.179C86.9631 69.179 86.5239 69.0878 86.1295 68.9055C85.7351 68.7199 85.4219 68.4531 85.1899 68.1051C84.9579 67.7538 84.8419 67.3295 84.8419 66.8324C84.8419 66.3949 84.9281 66.0402 85.1004 65.7685C85.2728 65.4934 85.5031 65.2779 85.7915 65.1222C86.0798 64.9664 86.398 64.8504 86.746 64.7741C87.0973 64.6946 87.4503 64.6316 87.805 64.5852C88.269 64.5256 88.6452 64.4808 88.9335 64.451C89.2252 64.4179 89.4373 64.3632 89.5699 64.2869C89.7058 64.2107 89.7737 64.0781 89.7737 63.8892V63.8494C89.7737 63.3589 89.6395 62.9777 89.371 62.706C89.1059 62.4342 88.7032 62.2983 88.1629 62.2983C87.6028 62.2983 87.1636 62.4209 86.8454 62.6662C86.5273 62.9115 86.3035 63.1733 86.1743 63.4517L85.0606 63.054C85.2595 62.59 85.5247 62.2287 85.8561 61.9702C86.1908 61.7083 86.5554 61.526 86.9498 61.4233C87.3476 61.3172 87.7387 61.2642 88.1231 61.2642C88.3684 61.2642 88.6501 61.294 88.9683 61.3537C89.2898 61.41 89.5997 61.5277 89.898 61.7067C90.1996 61.8857 90.4498 62.1558 90.6487 62.517C90.8476 62.8783 90.947 63.3622 90.947 63.9688V69H89.7737V67.9659H89.714C89.6345 68.1316 89.5019 68.3089 89.3163 68.4979C89.1307 68.6868 88.8838 68.8475 88.5756 68.9801C88.2673 69.1127 87.8911 69.179 87.447 69.179ZM87.626 68.125C88.09 68.125 88.4811 68.0339 88.7993 67.8516C89.1208 67.6693 89.3627 67.4339 89.5251 67.1456C89.6908 66.8572 89.7737 66.554 89.7737 66.2358V65.1619C89.724 65.2216 89.6146 65.2763 89.4456 65.326C89.2799 65.3724 89.0876 65.4138 88.8689 65.4503C88.6534 65.4834 88.443 65.5133 88.2375 65.5398C88.0353 65.563 87.8712 65.5829 87.7453 65.5994C87.4404 65.6392 87.1553 65.7038 86.8902 65.7933C86.6283 65.8795 86.4162 66.0104 86.2538 66.1861C86.0947 66.3584 86.0152 66.5937 86.0152 66.892C86.0152 67.2997 86.166 67.608 86.4676 67.8168C86.7725 68.0223 87.1586 68.125 87.626 68.125ZM94.2618 58.8182V69H93.0885V58.8182H94.2618ZM18.7278 80.9091C18.7278 79.6562 18.8902 78.5045 19.215 77.4538C19.5431 76.3999 20.0105 75.4304 20.617 74.5455H21.6511C21.4125 74.8736 21.1887 75.2779 20.9799 75.7585C20.7744 76.2358 20.5938 76.7611 20.438 77.3345C20.2823 77.9046 20.1596 78.4946 20.0701 79.1044C19.984 79.7143 19.9409 80.3158 19.9409 80.9091C19.9409 81.6979 20.0171 82.4983 20.1696 83.3104C20.322 84.1224 20.5275 84.8764 20.786 85.5724C21.0446 86.2685 21.3329 86.8352 21.6511 87.2727H20.617C20.0105 86.3878 19.5431 85.42 19.215 84.3693C18.8902 83.3153 18.7278 82.1619 18.7278 80.9091ZM27.2404 82.8182H28.5927L29.7262 84.3097L30.0245 84.7074L31.7148 86.9545H30.3626L29.2489 85.4631L28.9705 85.0852L27.2404 82.8182ZM32.1325 80.9091C32.1325 81.983 31.9386 82.911 31.5508 83.6932C31.163 84.4754 30.631 85.0786 29.9549 85.5028C29.2788 85.9271 28.5065 86.1392 27.6381 86.1392C26.7698 86.1392 25.9975 85.9271 25.3214 85.5028C24.6452 85.0786 24.1133 84.4754 23.7255 83.6932C23.3377 82.911 23.1438 81.983 23.1438 80.9091C23.1438 79.8352 23.3377 78.9072 23.7255 78.125C24.1133 77.3428 24.6452 76.7396 25.3214 76.3153C25.9975 75.8911 26.7698 75.679 27.6381 75.679C28.5065 75.679 29.2788 75.8911 29.9549 76.3153C30.631 76.7396 31.163 77.3428 31.5508 78.125C31.9386 78.9072 32.1325 79.8352 32.1325 80.9091ZM30.9393 80.9091C30.9393 80.0275 30.7918 79.2834 30.4968 78.6768C30.2051 78.0703 29.8091 77.6113 29.3086 77.2997C28.8114 76.9882 28.2546 76.8324 27.6381 76.8324C27.0217 76.8324 26.4632 76.9882 25.9627 77.2997C25.4656 77.6113 25.0695 78.0703 24.7745 78.6768C24.4828 79.2834 24.337 80.0275 24.337 80.9091C24.337 81.7907 24.4828 82.5348 24.7745 83.1413C25.0695 83.7479 25.4656 84.2069 25.9627 84.5185C26.4632 84.83 27.0217 84.9858 27.6381 84.9858C28.2546 84.9858 28.8114 84.83 29.3086 84.5185C29.8091 84.2069 30.2051 83.7479 30.4968 83.1413C30.7918 82.5348 30.9393 81.7907 30.9393 80.9091ZM38.859 82.8778V78.3636H40.0323V86H38.859V84.7074H38.7795C38.6005 85.0952 38.3221 85.425 37.9442 85.6967C37.5664 85.9652 37.0891 86.0994 36.5124 86.0994C36.0352 86.0994 35.6109 85.995 35.2397 85.7862C34.8685 85.5741 34.5768 85.2559 34.3647 84.8317C34.1526 84.4041 34.0465 83.8655 34.0465 83.2159V78.3636H35.2198V83.1364C35.2198 83.6932 35.3756 84.1373 35.6871 84.4688C36.002 84.8002 36.4031 84.9659 36.8903 84.9659C37.1819 84.9659 37.4786 84.8913 37.7802 84.7422C38.0851 84.593 38.3403 84.3643 38.5458 84.0561C38.7546 83.7479 38.859 83.3551 38.859 82.8778ZM44.4284 86.179C43.9445 86.179 43.5054 86.0878 43.111 85.9055C42.7166 85.7199 42.4033 85.4531 42.1713 85.1051C41.9393 84.7538 41.8233 84.3295 41.8233 83.8324C41.8233 83.3949 41.9095 83.0402 42.0819 82.7685C42.2542 82.4934 42.4846 82.2779 42.7729 82.1222C43.0613 81.9664 43.3794 81.8504 43.7275 81.7741C44.0788 81.6946 44.4318 81.6316 44.7864 81.5852C45.2504 81.5256 45.6266 81.4808 45.915 81.451C46.2066 81.4179 46.4187 81.3632 46.5513 81.2869C46.6872 81.2107 46.7551 81.0781 46.7551 80.8892V80.8494C46.7551 80.3589 46.6209 79.9777 46.3525 79.706C46.0873 79.4342 45.6846 79.2983 45.1444 79.2983C44.5842 79.2983 44.1451 79.4209 43.8269 79.6662C43.5087 79.9115 43.285 80.1733 43.1557 80.4517L42.0421 80.054C42.2409 79.59 42.5061 79.2287 42.8375 78.9702C43.1723 78.7083 43.5369 78.526 43.9313 78.4233C44.329 78.3172 44.7201 78.2642 45.1046 78.2642C45.3498 78.2642 45.6316 78.294 45.9498 78.3537C46.2712 78.41 46.5811 78.5277 46.8794 78.7067C47.181 78.8857 47.4313 79.1558 47.6301 79.517C47.829 79.8783 47.9284 80.3622 47.9284 80.9688V86H46.7551V84.9659H46.6955C46.6159 85.1316 46.4834 85.3089 46.2978 85.4979C46.1122 85.6868 45.8652 85.8475 45.557 85.9801C45.2488 86.1127 44.8726 86.179 44.4284 86.179ZM44.6074 85.125C45.0714 85.125 45.4625 85.0339 45.7807 84.8516C46.1022 84.6693 46.3442 84.4339 46.5066 84.1456C46.6723 83.8572 46.7551 83.554 46.7551 83.2358V82.1619C46.7054 82.2216 46.5961 82.2763 46.427 82.326C46.2613 82.3724 46.0691 82.4138 45.8503 82.4503C45.6349 82.4834 45.4244 82.5133 45.2189 82.5398C45.0167 82.563 44.8527 82.5829 44.7267 82.5994C44.4218 82.6392 44.1368 82.7038 43.8716 82.7933C43.6098 82.8795 43.3977 83.0104 43.2353 83.1861C43.0762 83.3584 42.9966 83.5937 42.9966 83.892C42.9966 84.2997 43.1474 84.608 43.449 84.8168C43.754 85.0223 44.1401 85.125 44.6074 85.125ZM51.2433 75.8182V86H50.07V75.8182H51.2433ZM53.3922 86V78.3636H54.5655V86H53.3922ZM53.9888 77.0909C53.7601 77.0909 53.5629 77.013 53.3972 76.8572C53.2348 76.7015 53.1536 76.5142 53.1536 76.2955C53.1536 76.0767 53.2348 75.8894 53.3972 75.7337C53.5629 75.5779 53.7601 75.5 53.9888 75.5C54.2175 75.5 54.4131 75.5779 54.5755 75.7337C54.7412 75.8894 54.824 76.0767 54.824 76.2955C54.824 76.5142 54.7412 76.7015 54.5755 76.8572C54.4131 77.013 54.2175 77.0909 53.9888 77.0909ZM60.0355 78.3636V79.358H56.0781V78.3636H60.0355ZM57.2315 76.5341H58.4048V83.8125C58.4048 84.1439 58.4529 84.3925 58.549 84.5582C58.6484 84.7206 58.7744 84.83 58.9268 84.8864C59.0826 84.9394 59.2467 84.9659 59.419 84.9659C59.5483 84.9659 59.6544 84.9593 59.7372 84.946C59.8201 84.9295 59.8864 84.9162 59.9361 84.9062L60.1747 85.9602C60.0952 85.9901 59.9841 86.0199 59.8416 86.0497C59.6991 86.0829 59.5185 86.0994 59.2997 86.0994C58.9683 86.0994 58.6435 86.0282 58.3253 85.8857C58.0104 85.7431 57.7486 85.526 57.5398 85.2344C57.3343 84.9427 57.2315 84.5748 57.2315 84.1307V76.5341ZM64.0476 86.179C63.5637 86.179 63.1245 86.0878 62.7301 85.9055C62.3357 85.7199 62.0225 85.4531 61.7905 85.1051C61.5585 84.7538 61.4425 84.3295 61.4425 83.8324C61.4425 83.3949 61.5286 83.0402 61.701 82.7685C61.8733 82.4934 62.1037 82.2779 62.392 82.1222C62.6804 81.9664 62.9986 81.8504 63.3466 81.7741C63.6979 81.6946 64.0509 81.6316 64.4055 81.5852C64.8696 81.5256 65.2457 81.4808 65.5341 81.451C65.8258 81.4179 66.0379 81.3632 66.1705 81.2869C66.3063 81.2107 66.3743 81.0781 66.3743 80.8892V80.8494C66.3743 80.3589 66.2401 79.9777 65.9716 79.706C65.7064 79.4342 65.3037 79.2983 64.7635 79.2983C64.2034 79.2983 63.7642 79.4209 63.446 79.6662C63.1278 79.9115 62.9041 80.1733 62.7749 80.4517L61.6612 80.054C61.8601 79.59 62.1252 79.2287 62.4567 78.9702C62.7914 78.7083 63.156 78.526 63.5504 78.4233C63.9482 78.3172 64.3393 78.2642 64.7237 78.2642C64.969 78.2642 65.2507 78.294 65.5689 78.3537C65.8904 78.41 66.2003 78.5277 66.4986 78.7067C66.8002 78.8857 67.0504 79.1558 67.2493 79.517C67.4482 79.8783 67.5476 80.3622 67.5476 80.9688V86H66.3743V84.9659H66.3146C66.2351 85.1316 66.1025 85.3089 65.9169 85.4979C65.7313 85.6868 65.4844 85.8475 65.1761 85.9801C64.8679 86.1127 64.4917 86.179 64.0476 86.179ZM64.2266 85.125C64.6906 85.125 65.0817 85.0339 65.3999 84.8516C65.7214 84.6693 65.9633 84.4339 66.1257 84.1456C66.2914 83.8572 66.3743 83.554 66.3743 83.2358V82.1619C66.3246 82.2216 66.2152 82.2763 66.0462 82.326C65.8804 82.3724 65.6882 82.4138 65.4695 82.4503C65.254 82.4834 65.0436 82.5133 64.8381 82.5398C64.6359 82.563 64.4718 82.5829 64.3459 82.5994C64.041 82.6392 63.7559 82.7038 63.4908 82.7933C63.2289 82.8795 63.0168 83.0104 62.8544 83.1861C62.6953 83.3584 62.6158 83.5937 62.6158 83.892C62.6158 84.2997 62.7666 84.608 63.0682 84.8168C63.3731 85.0223 63.7592 85.125 64.2266 85.125ZM73.0101 78.3636V79.358H69.0527V78.3636H73.0101ZM70.2061 76.5341H71.3794V83.8125C71.3794 84.1439 71.4275 84.3925 71.5236 84.5582C71.623 84.7206 71.749 84.83 71.9015 84.8864C72.0572 84.9394 72.2213 84.9659 72.3936 84.9659C72.5229 84.9659 72.629 84.9593 72.7118 84.946C72.7947 84.9295 72.861 84.9162 72.9107 84.9062L73.1493 85.9602C73.0698 85.9901 72.9587 86.0199 72.8162 86.0497C72.6737 86.0829 72.4931 86.0994 72.2743 86.0994C71.9429 86.0994 71.6181 86.0282 71.2999 85.8857C70.985 85.7431 70.7232 85.526 70.5144 85.2344C70.3089 84.9427 70.2061 84.5748 70.2061 84.1307V76.5341ZM74.775 86V78.3636H75.9483V86H74.775ZM75.3716 77.0909C75.1429 77.0909 74.9457 77.013 74.78 76.8572C74.6176 76.7015 74.5364 76.5142 74.5364 76.2955C74.5364 76.0767 74.6176 75.8894 74.78 75.7337C74.9457 75.5779 75.1429 75.5 75.3716 75.5C75.6003 75.5 75.7959 75.5779 75.9583 75.7337C76.124 75.8894 76.2069 76.0767 76.2069 76.2955C76.2069 76.5142 76.124 76.7015 75.9583 76.8572C75.7959 77.013 75.6003 77.0909 75.3716 77.0909ZM84.3416 78.3636L81.5178 86H80.3246L77.5007 78.3636H78.7734L80.8814 84.4489H80.9609L83.0689 78.3636H84.3416ZM88.8185 86.1591C88.0827 86.1591 87.448 85.9967 86.9144 85.6719C86.3841 85.3438 85.9748 84.8864 85.6864 84.2997C85.4014 83.7098 85.2589 83.0237 85.2589 82.2415C85.2589 81.4593 85.4014 80.7699 85.6864 80.1733C85.9748 79.5734 86.3758 79.1061 86.8896 78.7713C87.4066 78.4332 88.0098 78.2642 88.6992 78.2642C89.0969 78.2642 89.4897 78.3305 89.8775 78.4631C90.2653 78.5956 90.6183 78.8111 90.9364 79.1094C91.2546 79.4044 91.5082 79.7955 91.6971 80.2827C91.886 80.7699 91.9805 81.3698 91.9805 82.0824V82.5795H86.0941V81.5653H90.7873C90.7873 81.1345 90.7011 80.75 90.5288 80.4119C90.3597 80.0739 90.1178 79.8071 89.8029 79.6115C89.4914 79.416 89.1235 79.3182 88.6992 79.3182C88.2319 79.3182 87.8275 79.4342 87.4862 79.6662C87.1481 79.8949 86.8879 80.1932 86.7056 80.5611C86.5233 80.929 86.4322 81.3234 86.4322 81.7443V82.4205C86.4322 82.9972 86.5316 83.486 86.7305 83.8871C86.9326 84.2848 87.2127 84.5881 87.5707 84.7969C87.9286 85.0024 88.3446 85.1051 88.8185 85.1051C89.1268 85.1051 89.4052 85.062 89.6538 84.9759C89.9057 84.8864 90.1228 84.7538 90.305 84.5781C90.4873 84.3991 90.6282 84.1771 90.7276 83.9119L91.8612 84.2301C91.7418 84.6146 91.5413 84.9527 91.2596 85.2443C90.9779 85.5327 90.6299 85.758 90.2156 85.9205C89.8013 86.0795 89.3356 86.1591 88.8185 86.1591ZM96.271 81.7045C96.271 82.9574 96.1069 84.1108 95.7788 85.1648C95.454 86.2154 94.9883 87.1832 94.3817 88.0682H93.3477C93.5863 87.7401 93.8084 87.3357 94.0138 86.8551C94.2227 86.3778 94.4049 85.8542 94.5607 85.2841C94.7165 84.7107 94.8375 84.1191 94.9237 83.5092C95.0131 82.8961 95.0579 82.2945 95.0579 81.7045C95.0579 80.9157 94.9817 80.1153 94.8292 79.3033C94.6767 78.4912 94.4712 77.7372 94.2127 77.0412C93.9542 76.3452 93.6658 75.7784 93.3477 75.3409H94.3817C94.9883 76.2259 95.454 77.1953 95.7788 78.2493C96.1069 79.3 96.271 80.4517 96.271 81.7045Z" fill="white"/>
<path d="M176.174 61.9848C176.718 61.8888 177.081 61.3701 176.985 60.8262L175.421 51.9632C175.325 51.4193 174.806 51.0562 174.262 51.1522C173.718 51.2481 173.355 51.7669 173.451 52.3107L174.841 60.189L166.963 61.5793C166.419 61.6753 166.056 62.194 166.152 62.7379C166.248 63.2817 166.767 63.6448 167.311 63.5489L176.174 61.9848ZM135.427 33.8192L175.427 61.8192L176.573 60.1808L136.573 32.1808L135.427 33.8192Z" fill="white"/>
<path d="M98.0094 60.8628C97.9337 61.4099 98.3158 61.9148 98.8628 61.9906L107.778 63.2249C108.325 63.3007 108.83 62.9186 108.905 62.3715C108.981 61.8245 108.599 61.3196 108.052 61.2438L100.128 60.1466L101.225 52.2222C101.301 51.6751 100.919 51.1702 100.372 51.0945C99.8245 51.0188 99.3196 51.4008 99.2438 51.9479L98.0094 60.8628ZM135.397 32.2026L98.3966 60.2026L99.6034 61.7974L136.603 33.7974L135.397 32.2026Z" fill="white"/>
<path d="M6.19487 116.455V123H5.42782L1.86106 117.861H1.79714V123H1.00453V116.455H1.77157L5.35112 121.607H5.41504V116.455H6.19487ZM9.67294 123.102C9.22976 123.102 8.84091 122.997 8.50639 122.786C8.17401 122.575 7.91406 122.28 7.72656 121.901C7.54119 121.521 7.44851 121.078 7.44851 120.571C7.44851 120.06 7.54119 119.613 7.72656 119.232C7.91406 118.85 8.17401 118.554 8.50639 118.343C8.84091 118.132 9.22976 118.027 9.67294 118.027C10.1161 118.027 10.5039 118.132 10.8363 118.343C11.1708 118.554 11.4308 118.85 11.6161 119.232C11.8036 119.613 11.8974 120.06 11.8974 120.571C11.8974 121.078 11.8036 121.521 11.6161 121.901C11.4308 122.28 11.1708 122.575 10.8363 122.786C10.5039 122.997 10.1161 123.102 9.67294 123.102ZM9.67294 122.425C10.0096 122.425 10.2866 122.338 10.5039 122.166C10.7212 121.993 10.8821 121.766 10.9865 121.485C11.0909 121.204 11.1431 120.899 11.1431 120.571C11.1431 120.243 11.0909 119.937 10.9865 119.654C10.8821 119.37 10.7212 119.141 10.5039 118.967C10.2866 118.792 10.0096 118.705 9.67294 118.705C9.33629 118.705 9.0593 118.792 8.84197 118.967C8.62464 119.141 8.46378 119.37 8.35938 119.654C8.25497 119.937 8.20277 120.243 8.20277 120.571C8.20277 120.899 8.25497 121.204 8.35938 121.485C8.46378 121.766 8.62464 121.993 8.84197 122.166C9.0593 122.338 9.33629 122.425 9.67294 122.425ZM13.0487 123V118.091H13.7774V118.858H13.8414C13.9436 118.596 14.1088 118.392 14.3367 118.248C14.5647 118.1 14.8385 118.027 15.1581 118.027C15.482 118.027 15.7515 118.1 15.9667 118.248C16.184 118.392 16.3534 118.596 16.4749 118.858H16.526C16.6517 118.604 16.8403 118.403 17.0917 118.254C17.3431 118.103 17.6446 118.027 17.9962 118.027C18.4351 118.027 18.7941 118.164 19.0732 118.439C19.3524 118.712 19.4919 119.137 19.4919 119.714V123H18.7377V119.714C18.7377 119.352 18.6386 119.093 18.4404 118.938C18.2423 118.782 18.009 118.705 17.7405 118.705C17.3953 118.705 17.1279 118.809 16.9383 119.018C16.7487 119.224 16.6539 119.487 16.6539 119.804V123H15.8868V119.638C15.8868 119.359 15.7963 119.134 15.6151 118.963C15.434 118.791 15.2007 118.705 14.9152 118.705C14.7192 118.705 14.536 118.757 14.3655 118.861C14.1972 118.966 14.0608 119.11 13.9564 119.296C13.8541 119.479 13.803 119.691 13.803 119.932V123H13.0487ZM20.871 123V118.091H21.6253V123H20.871ZM21.2545 117.273C21.1075 117.273 20.9807 117.223 20.8742 117.123C20.7698 117.022 20.7176 116.902 20.7176 116.761C20.7176 116.621 20.7698 116.5 20.8742 116.4C20.9807 116.3 21.1075 116.25 21.2545 116.25C21.4015 116.25 21.5273 116.3 21.6317 116.4C21.7382 116.5 21.7915 116.621 21.7915 116.761C21.7915 116.902 21.7382 117.022 21.6317 117.123C21.5273 117.223 21.4015 117.273 21.2545 117.273ZM23.761 120.047V123H23.0067V118.091H23.7354V118.858H23.7994C23.9144 118.609 24.0891 118.408 24.3235 118.257C24.5579 118.104 24.8604 118.027 25.2312 118.027C25.5636 118.027 25.8544 118.095 26.1037 118.232C26.353 118.366 26.5469 118.57 26.6854 118.845C26.8239 119.118 26.8931 119.463 26.8931 119.881V123H26.1388V119.932C26.1388 119.546 26.0387 119.246 25.8384 119.031C25.6381 118.813 25.3633 118.705 25.0138 118.705C24.7731 118.705 24.5579 118.757 24.3683 118.861C24.1808 118.966 24.0327 119.118 23.924 119.318C23.8153 119.518 23.761 119.761 23.761 120.047ZM29.716 123.115C29.4049 123.115 29.1226 123.056 28.8691 122.939C28.6155 122.82 28.4142 122.648 28.265 122.425C28.1159 122.199 28.0413 121.926 28.0413 121.607C28.0413 121.325 28.0967 121.097 28.2075 120.923C28.3183 120.746 28.4664 120.607 28.6517 120.507C28.8371 120.407 29.0416 120.332 29.2654 120.283C29.4912 120.232 29.7181 120.192 29.9461 120.162C30.2444 120.124 30.4862 120.095 30.6716 120.076C30.8591 120.054 30.9955 120.019 31.0807 119.97C31.1681 119.921 31.2117 119.836 31.2117 119.714V119.689C31.2117 119.374 31.1254 119.129 30.9529 118.954C30.7824 118.779 30.5235 118.692 30.1762 118.692C29.8161 118.692 29.5338 118.771 29.3293 118.928C29.1247 119.086 28.9809 119.254 28.8978 119.433L28.1819 119.178C28.3097 118.879 28.4802 118.647 28.6933 118.481C28.9085 118.312 29.1428 118.195 29.3964 118.129C29.6521 118.061 29.9035 118.027 30.1507 118.027C30.3083 118.027 30.4894 118.046 30.694 118.085C30.9007 118.121 31.0999 118.196 31.2916 118.311C31.4855 118.426 31.6464 118.6 31.7742 118.832C31.9021 119.065 31.966 119.376 31.966 119.766V123H31.2117V122.335H31.1734C31.1222 122.442 31.037 122.556 30.9177 122.677C30.7984 122.799 30.6396 122.902 30.4415 122.987C30.2433 123.072 30.0015 123.115 29.716 123.115ZM29.8311 122.438C30.1294 122.438 30.3808 122.379 30.5853 122.262C30.792 122.145 30.9475 121.993 31.0519 121.808C31.1585 121.623 31.2117 121.428 31.2117 121.223V120.533C31.1798 120.571 31.1095 120.606 31.0008 120.638C30.8943 120.668 30.7707 120.695 30.6301 120.718C30.4916 120.739 30.3563 120.759 30.2242 120.776C30.0942 120.79 29.9887 120.803 29.9078 120.814C29.7117 120.839 29.5285 120.881 29.358 120.939C29.1897 120.994 29.0534 121.078 28.949 121.191C28.8467 121.302 28.7955 121.453 28.7955 121.645C28.7955 121.907 28.8925 122.105 29.0864 122.239C29.2824 122.371 29.5306 122.438 29.8311 122.438ZM34.0969 116.455V123H33.3427V116.455H34.0969Z" fill="white"/>
<path d="M89.6894 119.727C89.6894 120.418 89.5647 121.014 89.3154 121.517C89.0661 122.02 88.7242 122.408 88.2895 122.68C87.8548 122.953 87.3584 123.089 86.8002 123.089C86.2419 123.089 85.7455 122.953 85.3108 122.68C84.8762 122.408 84.5342 122.02 84.2849 121.517C84.0356 121.014 83.911 120.418 83.911 119.727C83.911 119.037 84.0356 118.44 84.2849 117.938C84.5342 117.435 84.8762 117.047 85.3108 116.774C85.7455 116.501 86.2419 116.365 86.8002 116.365C87.3584 116.365 87.8548 116.501 88.2895 116.774C88.7242 117.047 89.0661 117.435 89.3154 117.938C89.5647 118.44 89.6894 119.037 89.6894 119.727ZM88.9223 119.727C88.9223 119.161 88.8275 118.682 88.6379 118.292C88.4504 117.902 88.1958 117.607 87.874 117.407C87.5544 117.207 87.1965 117.107 86.8002 117.107C86.4039 117.107 86.0448 117.207 85.7231 117.407C85.4035 117.607 85.1489 117.902 84.9593 118.292C84.7718 118.682 84.678 119.161 84.678 119.727C84.678 120.294 84.7718 120.772 84.9593 121.162C85.1489 121.552 85.4035 121.847 85.7231 122.048C86.0448 122.248 86.4039 122.348 86.8002 122.348C87.1965 122.348 87.5544 122.248 87.874 122.048C88.1958 121.847 88.4504 121.552 88.6379 121.162C88.8275 120.772 88.9223 120.294 88.9223 119.727ZM90.9198 123V118.091H91.6485V118.832H91.6997C91.7892 118.589 91.9511 118.392 92.1855 118.241C92.4198 118.09 92.684 118.014 92.9781 118.014C93.0335 118.014 93.1027 118.015 93.1858 118.017C93.2689 118.02 93.3318 118.023 93.3744 118.027V118.794C93.3488 118.788 93.2902 118.778 93.1986 118.765C93.1091 118.75 93.0143 118.743 92.9142 118.743C92.6755 118.743 92.4624 118.793 92.2749 118.893C92.0896 118.991 91.9426 119.127 91.8339 119.302C91.7274 119.475 91.6741 119.672 91.6741 119.893V123H90.9198ZM95.9727 123.102C95.5637 123.102 95.2025 122.999 94.8893 122.792C94.5761 122.583 94.3311 122.289 94.1542 121.91C93.9774 121.529 93.8889 121.078 93.8889 120.558C93.8889 120.043 93.9774 119.595 94.1542 119.216C94.3311 118.837 94.5771 118.544 94.8925 118.337C95.2078 118.13 95.5722 118.027 95.9855 118.027C96.3051 118.027 96.5576 118.08 96.743 118.187C96.9305 118.291 97.0732 118.411 97.1713 118.545C97.2714 118.677 97.3492 118.786 97.4046 118.871H97.4685V116.455H98.2227V123H97.4941V122.246H97.4046C97.3492 122.335 97.2703 122.448 97.1681 122.585C97.0658 122.719 96.9198 122.839 96.7302 122.946C96.5406 123.05 96.2881 123.102 95.9727 123.102ZM96.075 122.425C96.3776 122.425 96.6333 122.346 96.8421 122.188C97.0509 122.028 97.2096 121.808 97.3183 121.527C97.4269 121.243 97.4813 120.916 97.4813 120.545C97.4813 120.179 97.428 119.858 97.3215 119.583C97.2149 119.306 97.0573 119.091 96.8485 118.938C96.6396 118.782 96.3818 118.705 96.075 118.705C95.7554 118.705 95.4891 118.787 95.276 118.951C95.0651 119.113 94.9063 119.333 94.7998 119.612C94.6954 119.889 94.6432 120.2 94.6432 120.545C94.6432 120.895 94.6965 121.212 94.803 121.498C94.9117 121.781 95.0715 122.007 95.2824 122.175C95.4955 122.342 95.7597 122.425 96.075 122.425ZM99.7089 123V118.091H100.463V123H99.7089ZM100.092 117.273C99.9454 117.273 99.8186 117.223 99.7121 117.123C99.6077 117.022 99.5555 116.902 99.5555 116.761C99.5555 116.621 99.6077 116.5 99.7121 116.4C99.8186 116.3 99.9454 116.25 100.092 116.25C100.239 116.25 100.365 116.3 100.47 116.4C100.576 116.5 100.629 116.621 100.629 116.761C100.629 116.902 100.576 117.022 100.47 117.123C100.365 117.223 100.239 117.273 100.092 117.273ZM102.599 120.047V123H101.845V118.091H102.573V118.858H102.637C102.752 118.609 102.927 118.408 103.161 118.257C103.396 118.104 103.698 118.027 104.069 118.027C104.401 118.027 104.692 118.095 104.942 118.232C105.191 118.366 105.385 118.57 105.523 118.845C105.662 119.118 105.731 119.463 105.731 119.881V123H104.977V119.932C104.977 119.546 104.877 119.246 104.676 119.031C104.476 118.813 104.201 118.705 103.852 118.705C103.611 118.705 103.396 118.757 103.206 118.861C103.019 118.966 102.871 119.118 102.762 119.318C102.653 119.518 102.599 119.761 102.599 120.047ZM108.554 123.115C108.243 123.115 107.96 123.056 107.707 122.939C107.453 122.82 107.252 122.648 107.103 122.425C106.954 122.199 106.879 121.926 106.879 121.607C106.879 121.325 106.935 121.097 107.045 120.923C107.156 120.746 107.304 120.607 107.49 120.507C107.675 120.407 107.88 120.332 108.103 120.283C108.329 120.232 108.556 120.192 108.784 120.162C109.082 120.124 109.324 120.095 109.509 120.076C109.697 120.054 109.833 120.019 109.919 119.97C110.006 119.921 110.05 119.836 110.05 119.714V119.689C110.05 119.374 109.963 119.129 109.791 118.954C109.62 118.779 109.361 118.692 109.014 118.692C108.654 118.692 108.372 118.771 108.167 118.928C107.963 119.086 107.819 119.254 107.736 119.433L107.02 119.178C107.148 118.879 107.318 118.647 107.531 118.481C107.746 118.312 107.981 118.195 108.234 118.129C108.49 118.061 108.741 118.027 108.989 118.027C109.146 118.027 109.327 118.046 109.532 118.085C109.739 118.121 109.938 118.196 110.13 118.311C110.323 118.426 110.484 118.6 110.612 118.832C110.74 119.065 110.804 119.376 110.804 119.766V123H110.05V122.335H110.011C109.96 122.442 109.875 122.556 109.756 122.677C109.636 122.799 109.478 122.902 109.279 122.987C109.081 123.072 108.839 123.115 108.554 123.115ZM108.669 122.438C108.967 122.438 109.219 122.379 109.423 122.262C109.63 122.145 109.785 121.993 109.89 121.808C109.996 121.623 110.05 121.428 110.05 121.223V120.533C110.018 120.571 109.947 120.606 109.839 120.638C109.732 120.668 109.609 120.695 109.468 120.718C109.329 120.739 109.194 120.759 109.062 120.776C108.932 120.79 108.827 120.803 108.746 120.814C108.55 120.839 108.366 120.881 108.196 120.939C108.028 120.994 107.891 121.078 107.787 121.191C107.685 121.302 107.633 121.453 107.633 121.645C107.633 121.907 107.73 122.105 107.924 122.239C108.12 122.371 108.369 122.438 108.669 122.438ZM112.935 116.455V123H112.181V116.455H112.935Z" fill="white"/>
<path d="M155.199 123H153.179V116.455H155.289C155.924 116.455 156.467 116.586 156.919 116.848C157.37 117.108 157.717 117.482 157.957 117.969C158.198 118.455 158.319 119.037 158.319 119.714C158.319 120.396 158.197 120.983 157.954 121.475C157.711 121.966 157.358 122.343 156.893 122.607C156.429 122.869 155.864 123 155.199 123ZM153.972 122.297H155.148C155.689 122.297 156.138 122.192 156.494 121.984C156.849 121.775 157.115 121.478 157.289 121.092C157.464 120.706 157.551 120.247 157.551 119.714C157.551 119.186 157.465 118.731 157.293 118.35C157.12 117.966 156.862 117.672 156.519 117.468C156.176 117.261 155.749 117.158 155.238 117.158H153.972V122.297ZM159.546 123V118.091H160.3V123H159.546ZM159.929 117.273C159.782 117.273 159.656 117.223 159.549 117.123C159.445 117.022 159.392 116.902 159.392 116.761C159.392 116.621 159.445 116.5 159.549 116.4C159.656 116.3 159.782 116.25 159.929 116.25C160.076 116.25 160.202 116.3 160.306 116.4C160.413 116.5 160.466 116.621 160.466 116.761C160.466 116.902 160.413 117.022 160.306 117.123C160.202 117.223 160.076 117.273 159.929 117.273ZM165.159 119.19L164.481 119.382C164.439 119.269 164.376 119.159 164.293 119.053C164.212 118.944 164.101 118.855 163.96 118.784C163.82 118.714 163.64 118.679 163.42 118.679C163.12 118.679 162.869 118.748 162.669 118.887C162.471 119.023 162.372 119.197 162.372 119.408C162.372 119.595 162.44 119.743 162.576 119.852C162.713 119.961 162.926 120.051 163.216 120.124L163.944 120.303C164.383 120.409 164.71 120.572 164.926 120.792C165.141 121.009 165.248 121.289 165.248 121.632C165.248 121.913 165.167 122.165 165.005 122.386C164.846 122.608 164.622 122.783 164.334 122.911C164.047 123.038 163.712 123.102 163.331 123.102C162.83 123.102 162.416 122.994 162.087 122.776C161.759 122.559 161.552 122.241 161.464 121.824L162.18 121.645C162.248 121.909 162.377 122.107 162.567 122.239C162.759 122.371 163.009 122.438 163.318 122.438C163.669 122.438 163.949 122.363 164.155 122.214C164.364 122.062 164.468 121.881 164.468 121.67C164.468 121.5 164.409 121.357 164.29 121.242C164.17 121.125 163.987 121.038 163.74 120.98L162.922 120.788C162.472 120.682 162.142 120.517 161.931 120.293C161.722 120.067 161.618 119.785 161.618 119.446C161.618 119.169 161.695 118.924 161.851 118.711C162.009 118.498 162.223 118.331 162.493 118.209C162.766 118.088 163.075 118.027 163.42 118.027C163.906 118.027 164.287 118.134 164.564 118.347C164.843 118.56 165.042 118.841 165.159 119.19ZM168.378 123.102C167.918 123.102 167.521 122.994 167.189 122.776C166.857 122.559 166.601 122.26 166.422 121.878C166.243 121.497 166.154 121.061 166.154 120.571C166.154 120.072 166.245 119.632 166.428 119.251C166.614 118.868 166.872 118.568 167.202 118.353C167.534 118.136 167.922 118.027 168.365 118.027C168.71 118.027 169.021 118.091 169.298 118.219C169.575 118.347 169.802 118.526 169.979 118.756C170.156 118.986 170.266 119.254 170.308 119.561H169.554C169.497 119.337 169.369 119.139 169.171 118.967C168.975 118.792 168.71 118.705 168.378 118.705C168.084 118.705 167.826 118.781 167.605 118.935C167.385 119.086 167.214 119.3 167.09 119.577C166.969 119.852 166.908 120.175 166.908 120.545C166.908 120.925 166.968 121.255 167.087 121.536C167.208 121.817 167.379 122.036 167.598 122.191C167.82 122.347 168.08 122.425 168.378 122.425C168.574 122.425 168.752 122.391 168.912 122.322C169.072 122.254 169.207 122.156 169.318 122.028C169.428 121.901 169.507 121.747 169.554 121.568H170.308C170.266 121.858 170.16 122.119 169.992 122.351C169.826 122.581 169.605 122.765 169.33 122.901C169.058 123.035 168.74 123.102 168.378 123.102ZM171.411 123V118.091H172.14V118.832H172.191C172.28 118.589 172.442 118.392 172.677 118.241C172.911 118.09 173.175 118.014 173.469 118.014C173.525 118.014 173.594 118.015 173.677 118.017C173.76 118.02 173.823 118.023 173.866 118.027V118.794C173.84 118.788 173.781 118.778 173.69 118.765C173.6 118.75 173.506 118.743 173.405 118.743C173.167 118.743 172.954 118.793 172.766 118.893C172.581 118.991 172.434 119.127 172.325 119.302C172.219 119.475 172.165 119.672 172.165 119.893V123H171.411ZM176.669 123.102C176.195 123.102 175.787 122.998 175.444 122.789C175.104 122.578 174.84 122.284 174.655 121.907C174.472 121.528 174.38 121.087 174.38 120.584C174.38 120.081 174.472 119.638 174.655 119.254C174.84 118.869 175.098 118.568 175.428 118.353C175.761 118.136 176.149 118.027 176.592 118.027C176.847 118.027 177.1 118.07 177.349 118.155C177.599 118.24 177.825 118.379 178.03 118.57C178.235 118.76 178.398 119.011 178.519 119.325C178.64 119.638 178.701 120.023 178.701 120.482V120.801H174.917V120.149H177.934C177.934 119.872 177.879 119.625 177.768 119.408C177.659 119.19 177.504 119.019 177.301 118.893C177.101 118.767 176.865 118.705 176.592 118.705C176.291 118.705 176.031 118.779 175.812 118.928C175.595 119.075 175.427 119.267 175.31 119.504C175.193 119.74 175.134 119.994 175.134 120.264V120.699C175.134 121.07 175.198 121.384 175.326 121.642C175.456 121.897 175.636 122.092 175.866 122.227C176.096 122.359 176.364 122.425 176.669 122.425C176.867 122.425 177.046 122.397 177.205 122.342C177.367 122.284 177.507 122.199 177.624 122.086C177.741 121.971 177.832 121.828 177.896 121.658L178.624 121.862C178.548 122.109 178.419 122.327 178.238 122.514C178.057 122.7 177.833 122.844 177.567 122.949C177.3 123.051 177.001 123.102 176.669 123.102ZM181.983 118.091V118.73H179.439V118.091H181.983ZM180.181 116.915H180.935V121.594C180.935 121.807 180.966 121.967 181.028 122.073C181.092 122.178 181.173 122.248 181.271 122.284C181.371 122.318 181.476 122.335 181.587 122.335C181.67 122.335 181.738 122.331 181.792 122.322C181.845 122.312 181.888 122.303 181.92 122.297L182.073 122.974C182.022 122.994 181.95 123.013 181.859 123.032C181.767 123.053 181.651 123.064 181.51 123.064C181.297 123.064 181.089 123.018 180.884 122.926C180.682 122.835 180.513 122.695 180.379 122.508C180.247 122.32 180.181 122.084 180.181 121.798V116.915ZM185.124 123.102C184.651 123.102 184.243 122.998 183.9 122.789C183.559 122.578 183.295 122.284 183.11 121.907C182.927 121.528 182.835 121.087 182.835 120.584C182.835 120.081 182.927 119.638 183.11 119.254C183.295 118.869 183.553 118.568 183.884 118.353C184.216 118.136 184.604 118.027 185.047 118.027C185.303 118.027 185.555 118.07 185.804 118.155C186.054 118.24 186.281 118.379 186.485 118.57C186.69 118.76 186.853 119.011 186.974 119.325C187.096 119.638 187.156 120.023 187.156 120.482V120.801H183.372V120.149H186.389C186.389 119.872 186.334 119.625 186.223 119.408C186.114 119.19 185.959 119.019 185.756 118.893C185.556 118.767 185.32 118.705 185.047 118.705C184.746 118.705 184.487 118.779 184.267 118.928C184.05 119.075 183.882 119.267 183.765 119.504C183.648 119.74 183.589 119.994 183.589 120.264V120.699C183.589 121.07 183.653 121.384 183.781 121.642C183.911 121.897 184.091 122.092 184.321 122.227C184.551 122.359 184.819 122.425 185.124 122.425C185.322 122.425 185.501 122.397 185.661 122.342C185.822 122.284 185.962 122.199 186.079 122.086C186.196 121.971 186.287 121.828 186.351 121.658L187.08 121.862C187.003 122.109 186.874 122.327 186.693 122.514C186.512 122.7 186.288 122.844 186.022 122.949C185.755 123.051 185.456 123.102 185.124 123.102Z" fill="white"/>
<path d="M242.368 118.5H241.575C241.528 118.272 241.446 118.072 241.329 117.899C241.214 117.727 241.073 117.582 240.907 117.464C240.743 117.345 240.561 117.256 240.361 117.196C240.16 117.136 239.952 117.107 239.734 117.107C239.338 117.107 238.979 117.207 238.657 117.407C238.338 117.607 238.083 117.902 237.893 118.292C237.706 118.682 237.612 119.161 237.612 119.727C237.612 120.294 237.706 120.772 237.893 121.162C238.083 121.552 238.338 121.847 238.657 122.048C238.979 122.248 239.338 122.348 239.734 122.348C239.952 122.348 240.16 122.318 240.361 122.259C240.561 122.199 240.743 122.11 240.907 121.993C241.073 121.874 241.214 121.728 241.329 121.555C241.446 121.381 241.528 121.18 241.575 120.955H242.368C242.308 121.289 242.199 121.588 242.042 121.853C241.884 122.117 241.688 122.342 241.454 122.527C241.219 122.71 240.956 122.85 240.664 122.946C240.375 123.042 240.064 123.089 239.734 123.089C239.176 123.089 238.68 122.953 238.245 122.68C237.81 122.408 237.468 122.02 237.219 121.517C236.97 121.014 236.845 120.418 236.845 119.727C236.845 119.037 236.97 118.44 237.219 117.938C237.468 117.435 237.81 117.047 238.245 116.774C238.68 116.501 239.176 116.365 239.734 116.365C240.064 116.365 240.375 116.413 240.664 116.509C240.956 116.605 241.219 116.745 241.454 116.931C241.688 117.114 241.884 117.338 242.042 117.602C242.199 117.864 242.308 118.163 242.368 118.5ZM245.541 123.102C245.097 123.102 244.709 122.997 244.374 122.786C244.042 122.575 243.782 122.28 243.594 121.901C243.409 121.521 243.316 121.078 243.316 120.571C243.316 120.06 243.409 119.613 243.594 119.232C243.782 118.85 244.042 118.554 244.374 118.343C244.709 118.132 245.097 118.027 245.541 118.027C245.984 118.027 246.372 118.132 246.704 118.343C247.038 118.554 247.298 118.85 247.484 119.232C247.671 119.613 247.765 120.06 247.765 120.571C247.765 121.078 247.671 121.521 247.484 121.901C247.298 122.28 247.038 122.575 246.704 122.786C246.372 122.997 245.984 123.102 245.541 123.102ZM245.541 122.425C245.877 122.425 246.154 122.338 246.372 122.166C246.589 121.993 246.75 121.766 246.854 121.485C246.959 121.204 247.011 120.899 247.011 120.571C247.011 120.243 246.959 119.937 246.854 119.654C246.75 119.37 246.589 119.141 246.372 118.967C246.154 118.792 245.877 118.705 245.541 118.705C245.204 118.705 244.927 118.792 244.71 118.967C244.492 119.141 244.331 119.37 244.227 119.654C244.123 119.937 244.07 120.243 244.07 120.571C244.07 120.899 244.123 121.204 244.227 121.485C244.331 121.766 244.492 121.993 244.71 122.166C244.927 122.338 245.204 122.425 245.541 122.425ZM249.671 120.047V123H248.916V118.091H249.645V118.858H249.709C249.824 118.609 249.999 118.408 250.233 118.257C250.468 118.104 250.77 118.027 251.141 118.027C251.473 118.027 251.764 118.095 252.013 118.232C252.263 118.366 252.457 118.57 252.595 118.845C252.734 119.118 252.803 119.463 252.803 119.881V123H252.049V119.932C252.049 119.546 251.948 119.246 251.748 119.031C251.548 118.813 251.273 118.705 250.924 118.705C250.683 118.705 250.468 118.757 250.278 118.861C250.09 118.966 249.942 119.118 249.834 119.318C249.725 119.518 249.671 119.761 249.671 120.047ZM256.316 118.091V118.73H253.772V118.091H256.316ZM254.513 116.915H255.268V121.594C255.268 121.807 255.299 121.967 255.36 122.073C255.424 122.178 255.505 122.248 255.603 122.284C255.703 122.318 255.809 122.335 255.92 122.335C256.003 122.335 256.071 122.331 256.124 122.322C256.178 122.312 256.22 122.303 256.252 122.297L256.405 122.974C256.354 122.994 256.283 123.013 256.191 123.032C256.1 123.053 255.984 123.064 255.843 123.064C255.63 123.064 255.421 123.018 255.217 122.926C255.014 122.835 254.846 122.695 254.712 122.508C254.58 122.32 254.513 122.084 254.513 121.798V116.915ZM257.451 123V118.091H258.205V123H257.451ZM257.834 117.273C257.687 117.273 257.56 117.223 257.454 117.123C257.349 117.022 257.297 116.902 257.297 116.761C257.297 116.621 257.349 116.5 257.454 116.4C257.56 116.3 257.687 116.25 257.834 116.25C257.981 116.25 258.107 116.3 258.211 116.4C258.318 116.5 258.371 116.621 258.371 116.761C258.371 116.902 258.318 117.022 258.211 117.123C258.107 117.223 257.981 117.273 257.834 117.273ZM260.341 120.047V123H259.586V118.091H260.315V118.858H260.379C260.494 118.609 260.669 118.408 260.903 118.257C261.137 118.104 261.44 118.027 261.811 118.027C262.143 118.027 262.434 118.095 262.683 118.232C262.933 118.366 263.126 118.57 263.265 118.845C263.403 119.118 263.473 119.463 263.473 119.881V123H262.718V119.932C262.718 119.546 262.618 119.246 262.418 119.031C262.218 118.813 261.943 118.705 261.593 118.705C261.353 118.705 261.137 118.757 260.948 118.861C260.76 118.966 260.612 119.118 260.504 119.318C260.395 119.518 260.341 119.761 260.341 120.047ZM267.945 120.993V118.091H268.699V123H267.945V122.169H267.894C267.779 122.418 267.6 122.63 267.357 122.805C267.114 122.978 266.807 123.064 266.436 123.064C266.129 123.064 265.857 122.997 265.618 122.863C265.379 122.726 265.192 122.522 265.056 122.249C264.919 121.974 264.851 121.628 264.851 121.21V118.091H265.605V121.159C265.605 121.517 265.705 121.803 265.906 122.016C266.108 122.229 266.366 122.335 266.679 122.335C266.867 122.335 267.057 122.287 267.251 122.191C267.447 122.096 267.611 121.949 267.743 121.75C267.878 121.552 267.945 121.3 267.945 120.993ZM272.075 123.102C271.632 123.102 271.243 122.997 270.908 122.786C270.576 122.575 270.316 122.28 270.128 121.901C269.943 121.521 269.85 121.078 269.85 120.571C269.85 120.06 269.943 119.613 270.128 119.232C270.316 118.85 270.576 118.554 270.908 118.343C271.243 118.132 271.632 118.027 272.075 118.027C272.518 118.027 272.906 118.132 273.238 118.343C273.573 118.554 273.833 118.85 274.018 119.232C274.205 119.613 274.299 120.06 274.299 120.571C274.299 121.078 274.205 121.521 274.018 121.901C273.833 122.28 273.573 122.575 273.238 122.786C272.906 122.997 272.518 123.102 272.075 123.102ZM272.075 122.425C272.411 122.425 272.688 122.338 272.906 122.166C273.123 121.993 273.284 121.766 273.388 121.485C273.493 121.204 273.545 120.899 273.545 120.571C273.545 120.243 273.493 119.937 273.388 119.654C273.284 119.37 273.123 119.141 272.906 118.967C272.688 118.792 272.411 118.705 272.075 118.705C271.738 118.705 271.461 118.792 271.244 118.967C271.027 119.141 270.866 119.37 270.761 119.654C270.657 119.937 270.605 120.243 270.605 120.571C270.605 120.899 270.657 121.204 270.761 121.485C270.866 121.766 271.027 121.993 271.244 122.166C271.461 122.338 271.738 122.425 272.075 122.425ZM278.544 120.993V118.091H279.299V123H278.544V122.169H278.493C278.378 122.418 278.199 122.63 277.956 122.805C277.713 122.978 277.407 123.064 277.036 123.064C276.729 123.064 276.456 122.997 276.218 122.863C275.979 122.726 275.792 122.522 275.655 122.249C275.519 121.974 275.451 121.628 275.451 121.21V118.091H276.205V121.159C276.205 121.517 276.305 121.803 276.505 122.016C276.708 122.229 276.966 122.335 277.279 122.335C277.466 122.335 277.657 122.287 277.851 122.191C278.047 122.096 278.211 121.949 278.343 121.75C278.477 121.552 278.544 121.3 278.544 120.993ZM284.157 119.19L283.48 119.382C283.437 119.269 283.374 119.159 283.291 119.053C283.21 118.944 283.099 118.855 282.959 118.784C282.818 118.714 282.638 118.679 282.419 118.679C282.118 118.679 281.868 118.748 281.668 118.887C281.47 119.023 281.37 119.197 281.37 119.408C281.37 119.595 281.439 119.743 281.575 119.852C281.711 119.961 281.924 120.051 282.214 120.124L282.943 120.303C283.382 120.409 283.709 120.572 283.924 120.792C284.139 121.009 284.247 121.289 284.247 121.632C284.247 121.913 284.166 122.165 284.004 122.386C283.844 122.608 283.62 122.783 283.333 122.911C283.045 123.038 282.711 123.102 282.329 123.102C281.829 123.102 281.414 122.994 281.086 122.776C280.758 122.559 280.55 122.241 280.463 121.824L281.179 121.645C281.247 121.909 281.376 122.107 281.565 122.239C281.757 122.371 282.008 122.438 282.316 122.438C282.668 122.438 282.947 122.363 283.154 122.214C283.363 122.062 283.467 121.881 283.467 121.67C283.467 121.5 283.407 121.357 283.288 121.242C283.169 121.125 282.985 121.038 282.738 120.98L281.92 120.788C281.471 120.682 281.14 120.517 280.929 120.293C280.721 120.067 280.616 119.785 280.616 119.446C280.616 119.169 280.694 118.924 280.849 118.711C281.007 118.498 281.221 118.331 281.492 118.209C281.765 118.088 282.074 118.027 282.419 118.027C282.905 118.027 283.286 118.134 283.563 118.347C283.842 118.56 284.04 118.841 284.157 119.19Z" fill="white"/>
<path d="M256.121 112.485C256.389 112.418 256.552 112.147 256.485 111.879L255.394 107.513C255.327 107.245 255.055 107.082 254.787 107.149C254.519 107.216 254.357 107.488 254.424 107.756L255.394 111.636L251.513 112.606C251.245 112.673 251.082 112.945 251.149 113.213C251.216 113.481 251.488 113.643 251.756 113.576L256.121 112.485ZM215.743 88.4287L255.743 112.429L256.257 111.571L216.257 87.5713L215.743 88.4287Z" fill="white"/>
<path d="M99.1403 112.48C99.4053 112.402 99.5574 112.125 99.4799 111.86L98.2174 107.54C98.1399 107.275 97.8622 107.123 97.5972 107.201C97.3321 107.278 97.1801 107.556 97.2575 107.821L98.3798 111.66L94.5405 112.783C94.2754 112.86 94.1234 113.138 94.2008 113.403C94.2783 113.668 94.556 113.82 94.821 113.742L99.1403 112.48ZM56.7598 89.4385L98.7598 112.439L99.2402 111.561L57.2402 88.5615L56.7598 89.4385Z" fill="white"/>
<path d="M15.5201 111.86C15.4426 112.125 15.5947 112.402 15.8597 112.48L20.179 113.742C20.444 113.82 20.7217 113.668 20.7992 113.403C20.8767 113.138 20.7246 112.86 20.4595 112.783L16.6202 111.66L17.7425 107.821C17.8199 107.556 17.6679 107.278 17.4028 107.201C17.1378 107.123 16.8601 107.275 16.7826 107.54L15.5201 111.86ZM57.7598 88.5615L15.7598 111.561L16.2402 112.439L58.2402 89.4385L57.7598 88.5615Z" fill="white"/>
<path d="M170.522 111.854C170.441 112.119 170.59 112.398 170.854 112.478L175.159 113.789C175.424 113.869 175.703 113.72 175.783 113.456C175.864 113.192 175.715 112.912 175.451 112.832L171.624 111.667L172.789 107.841C172.869 107.576 172.72 107.297 172.456 107.217C172.192 107.136 171.912 107.285 171.832 107.549L170.522 111.854ZM215.765 87.5588L170.765 111.559L171.235 112.441L216.235 88.4412L215.765 87.5588Z" fill="white"/>
</svg>
